<svg width="30" height="30" viewBox="0 0 30 30" fill="none" xmlns="http://www.w3.org/2000/svg">
<path d="M10.4508 0.986669C7.45335 2.02652 4.86834 4.00018 3.07548 6.61777C1.28262 9.23535 0.376419 12.3589 0.489976 15.5296C0.603533 18.7002 1.73086 21.7509 3.70639 24.2335C5.68191 26.7162 8.40148 28.4999 11.4657 29.3226C13.9499 29.9636 16.5526 29.9918 19.05 29.4046C21.3125 28.8964 23.4042 27.8094 25.1203 26.25C26.9065 24.5773 28.2029 22.4495 28.8703 20.0953C29.5958 17.5351 29.7249 14.8428 29.2477 12.2249H15.2977V18.0117H23.3766C23.2151 18.9346 22.8691 19.8155 22.3593 20.6016C21.8495 21.3877 21.1863 22.0629 20.4094 22.5867C19.4229 23.2392 18.3108 23.6783 17.1446 23.8757C15.9749 24.0932 14.7752 24.0932 13.6055 23.8757C12.42 23.6306 11.2985 23.1413 10.3125 22.439C8.72851 21.3177 7.53912 19.7248 6.9141 17.8875C6.2785 16.0157 6.2785 13.9865 6.9141 12.1148C7.359 10.8028 8.09449 9.60824 9.06566 8.62026C10.177 7.46889 11.5841 6.64588 13.1324 6.24153C14.6808 5.83719 16.3106 5.86713 17.843 6.32807C19.0401 6.69555 20.1348 7.33762 21.0399 8.20307C21.9508 7.29682 22.8602 6.38823 23.768 5.47729C24.2368 4.98745 24.7477 4.52104 25.2094 4.01948C23.8279 2.73388 22.2063 1.73352 20.4375 1.07573C17.2165 -0.093824 13.6922 -0.125255 10.4508 0.986669Z" fill="#F9F7F3"/>
<path d="M10.4509 0.986709C13.692 -0.12597 17.2163 -0.0953667 20.4376 1.07343C22.2067 1.73569 23.8276 2.74086 25.2071 4.03124C24.7384 4.5328 24.2438 5.00155 23.7657 5.48905C22.8563 6.39687 21.9478 7.30155 21.0399 8.20312C20.1349 7.33766 19.0402 6.6956 17.8431 6.32812C16.3111 5.86555 14.6814 5.83388 13.1326 6.23657C11.5839 6.63927 10.176 7.46076 9.06338 8.61093C8.09221 9.5989 7.35672 10.7935 6.91182 12.1055L2.05322 8.34374C3.7923 4.89506 6.80342 2.25708 10.4509 0.986709Z" fill="#E33629"/>
<path d="M0.764251 12.0703C1.02539 10.7761 1.45895 9.52272 2.05331 8.34375L6.91191 12.1148C6.27632 13.9866 6.27632 16.0158 6.91191 17.8875C5.29316 19.1375 3.67363 20.3938 2.05331 21.6563C0.565385 18.6945 0.111593 15.3199 0.764251 12.0703Z" fill="#F8BD00"/>
<path d="M15.2974 12.2227H29.2474C29.7246 14.8405 29.5955 17.5328 28.8701 20.093C28.2027 22.4472 26.9062 24.575 25.1201 26.2477C23.5521 25.0242 21.9771 23.8102 20.4091 22.5867C21.1865 22.0624 21.85 21.3865 22.3599 20.5995C22.8697 19.8126 23.2155 18.9308 23.3763 18.007H15.2974C15.2951 16.0805 15.2974 14.1516 15.2974 12.2227Z" fill="#587DBD"/>
<path d="M2.05078 21.6562C3.67109 20.4062 5.29062 19.15 6.90937 17.8875C7.53564 19.7254 8.72673 21.3185 10.3125 22.439C11.3016 23.1381 12.4255 23.6234 13.6125 23.864C14.7822 24.0815 15.9819 24.0815 17.1516 23.864C18.3178 23.6666 19.4299 23.2275 20.4164 22.575C21.9844 23.7984 23.5594 25.0125 25.1273 26.2359C23.4115 27.7962 21.3197 28.884 19.057 29.3929C16.5596 29.98 13.9569 29.9519 11.4727 29.3109C9.5079 28.7863 7.67268 27.8615 6.08203 26.5945C4.39842 25.2578 3.02333 23.5733 2.05078 21.6562Z" fill="#319F43"/>
</svg>
