<svg width="896" height="748" viewBox="0 0 896 748" fill="none" xmlns="http://www.w3.org/2000/svg">
<g clip-path="url(#clip0_247_622)">
<rect width="896" height="747.971" fill="white"/>
<path d="M41.6344 712.738C54.0628 735.787 80.4404 745.681 80.4404 745.681C80.4404 745.681 86.6675 718.206 74.2391 695.157C61.8106 672.108 35.4331 662.213 35.4331 662.213C35.4331 662.213 29.206 689.689 41.6344 712.738Z" fill="#2F2E41"/>
<path d="M50.1765 705.155C72.6149 718.655 81.2567 745.469 81.2567 745.469C81.2567 745.469 53.5186 750.396 31.0802 736.896C8.64174 723.396 0 696.582 0 696.582C0 696.582 27.7381 691.655 50.1765 705.155Z" fill="#D6C4A5"/>
<path d="M553.248 35.9077H413.248V37.9077H553.248V35.9077Z" fill="#F2F2F2"/>
<path d="M515.248 37.4077H513.248V55.9077H515.248V37.4077Z" fill="#F2F2F2"/>
<path d="M454.248 37.4077H452.248V55.9077H454.248V37.4077Z" fill="#F2F2F2"/>
<path d="M624.248 131.908H484.248V133.908H624.248V131.908Z" fill="#F2F2F2"/>
<path d="M524.248 113.908H522.248V132.408H524.248V113.908Z" fill="#F2F2F2"/>
<path d="M585.248 113.908H583.248V132.408H585.248V113.908Z" fill="#F2F2F2"/>
<path d="M810.248 176.908H670.248V178.908H810.248V176.908Z" fill="#F2F2F2"/>
<path d="M710.248 158.908H708.248V177.408H710.248V158.908Z" fill="#F2F2F2"/>
<path d="M771.248 158.908H769.248V177.408H771.248V158.908Z" fill="#F2F2F2"/>
<path d="M796.248 640.908H656.248V642.908H796.248V640.908Z" fill="#F2F2F2"/>
<path d="M696.248 622.908H694.248V641.408H696.248V622.908Z" fill="#F2F2F2"/>
<path d="M757.248 622.908H755.248V641.408H757.248V622.908Z" fill="#F2F2F2"/>
<path d="M557.248 319.908H417.248V321.908H557.248V319.908Z" fill="#F2F2F2"/>
<path d="M457.248 301.908H455.248V320.408H457.248V301.908Z" fill="#F2F2F2"/>
<path d="M518.248 301.908H516.248V320.408H518.248V301.908Z" fill="#F2F2F2"/>
<path d="M601.248 560.908H461.248V562.908H601.248V560.908Z" fill="#F2F2F2"/>
<path d="M501.248 542.908H499.248V561.408H501.248V542.908Z" fill="#F2F2F2"/>
<path d="M562.248 542.908H560.248V561.408H562.248V542.908Z" fill="#F2F2F2"/>
<path d="M825.248 487.908H685.248V489.908H825.248V487.908Z" fill="#F2F2F2"/>
<path d="M725.248 469.908H723.248V488.408H725.248V469.908Z" fill="#F2F2F2"/>
<path d="M786.248 469.908H784.248V488.408H786.248V469.908Z" fill="#F2F2F2"/>
<path d="M362.059 702.184H125.273V700.481H360.355V617.861H145.179L134.726 596.084L136.262 595.347L146.251 616.157H362.059V702.184Z" fill="#2F2E41"/>
<path d="M156.789 743.92C166.668 743.92 174.676 735.912 174.676 726.033C174.676 716.155 166.668 708.146 156.789 708.146C146.911 708.146 138.902 716.155 138.902 726.033C138.902 735.912 146.911 743.92 156.789 743.92Z" fill="#3F3D56"/>
<path d="M333.1 743.92C342.978 743.92 350.986 735.912 350.986 726.033C350.986 716.155 342.978 708.146 333.1 708.146C323.221 708.146 315.213 716.155 315.213 726.033C315.213 735.912 323.221 743.92 333.1 743.92Z" fill="#3F3D56"/>
<path d="M540.928 357.226C547.044 357.226 552.001 352.268 552.001 346.153C552.001 340.038 547.044 335.08 540.928 335.08C534.813 335.08 529.855 340.038 529.855 346.153C529.855 352.268 534.813 357.226 540.928 357.226Z" fill="#3F3D56"/>
<path d="M387.385 589.753H121.237L63.6484 401.517H446.693L446.344 402.624L387.385 589.753ZM122.497 588.05H386.136L444.37 403.22H65.9508L122.497 588.05Z" fill="#2F2E41"/>
<path d="M366.61 579.958H132.842L82.2598 413.015H418.701L418.395 413.998L366.61 579.958Z" fill="#F2F2F2"/>
<path d="M451.465 384.7L449.818 384.263L461.059 341.894H526.448V343.598H462.37L451.465 384.7Z" fill="#2F2E41"/>
<path d="M427.551 458.584H82.2578V460.287H427.551V458.584Z" fill="#2F2E41"/>
<path d="M407.778 521.344H101.459V523.047H407.778V521.344Z" fill="#2F2E41"/>
<path d="M256.018 402.369H254.314V588.902H256.018V402.369Z" fill="#2F2E41"/>
<path d="M332.285 402.315L320.057 588.843L321.757 588.955L333.985 402.426L332.285 402.315Z" fill="#2F2E41"/>
<path d="M178.081 402.313L176.381 402.424L188.538 588.957L190.238 588.846L178.081 402.313Z" fill="#2F2E41"/>
<path d="M896 745H0V747H896V745Z" fill="#2F2E41"/>
<path d="M595.41 61.8759C595.41 61.8759 610.029 103.482 601.033 109.883C592.037 116.284 631.394 168.559 631.394 168.559L678.623 155.757L652.759 112.017C652.759 112.017 649.386 68.2768 649.386 61.8759C649.386 55.4749 595.41 61.8759 595.41 61.8759Z" fill="#A0616A"/>
<path opacity="0.1" d="M595.41 61.8759C595.41 61.8759 610.029 103.482 601.033 109.883C592.037 116.284 631.394 168.559 631.394 168.559L678.623 155.757L652.759 112.017C652.759 112.017 649.386 68.2768 649.386 61.8759C649.386 55.4749 595.41 61.8759 595.41 61.8759Z" fill="black"/>
<path d="M570.873 358.454C570.873 358.454 566.606 411.795 570.873 439.533C575.14 467.27 581.541 544.082 581.541 544.082C581.541 544.082 581.541 689.17 605.012 691.304C628.482 693.438 645.551 695.571 647.685 687.037C649.818 678.502 637.016 674.235 643.417 669.967C649.818 665.7 651.952 650.765 643.417 633.695C634.883 616.626 643.417 443.8 643.417 443.8L683.957 552.616C683.957 552.616 688.224 642.23 692.491 655.032C696.759 667.834 688.224 691.304 703.16 693.438C718.095 695.571 735.165 682.769 743.699 678.502C752.234 674.235 730.897 674.235 735.165 672.101C739.432 669.967 752.234 663.566 747.966 661.433C743.699 659.299 739.432 556.884 739.432 556.884C739.432 556.884 727.697 338.184 712.761 329.65C697.826 321.115 688.224 335.815 688.224 335.815L570.873 358.454Z" fill="#2F2E41"/>
<path d="M609.279 682.77V699.839C609.279 699.839 590.076 746.238 609.279 746.238C628.482 746.238 643.417 751.046 643.417 744.646V687.037L609.279 682.77Z" fill="#2F2E41"/>
<path d="M735.166 682.739V699.808C735.166 699.808 754.369 746.208 735.166 746.208C715.963 746.208 701.027 751.016 701.027 744.615V687.007L735.166 682.739Z" fill="#2F2E41"/>
<path d="M625.283 92.814C646.494 92.814 663.689 75.6192 663.689 54.4082C663.689 33.1973 646.494 16.0024 625.283 16.0024C604.072 16.0024 586.877 33.1973 586.877 54.4082C586.877 75.6192 604.072 92.814 625.283 92.814Z" fill="#A0616A"/>
<path d="M613.547 125.886C613.547 125.886 624.215 157.891 641.284 151.49L658.353 145.089L688.225 349.919C688.225 349.919 664.754 384.058 630.616 362.721C596.477 341.385 613.547 125.886 613.547 125.886Z" fill="#D6C4A5"/>
<path d="M643.418 119.485L653.019 99.2148C653.019 99.2148 709.561 125.886 718.096 134.42C726.631 142.955 726.63 155.757 726.63 155.757L711.695 209.098C711.695 209.098 715.962 326.449 715.962 330.716C715.962 334.984 730.898 358.454 720.23 349.919C709.561 341.385 707.428 332.85 698.893 345.652C690.358 358.454 671.156 373.39 671.156 373.39L643.418 119.485Z" fill="#3F3D56"/>
<path d="M718.096 273.108L711.695 332.85C711.695 332.85 673.289 366.989 681.823 369.122C690.358 371.256 694.625 362.721 694.625 362.721C694.625 362.721 709.561 377.657 718.096 369.122C726.63 360.588 747.967 279.509 747.967 279.509L718.096 273.108Z" fill="#A0616A"/>
<path d="M626.1 0.129871C617.586 -0.174499 608.474 -0.32506 601.296 4.26308C597.993 6.56567 595.096 9.40154 592.724 12.6546C585.732 21.4931 579.691 32.6139 582.288 43.58L585.304 42.4036C585.304 45.3308 584.654 48.2214 583.399 50.8662C583.824 49.6311 585.246 51.6277 584.866 52.877L581.543 63.7777C587.005 61.7753 593.8 65.8296 594.631 71.5874C595.011 58.9262 596.324 44.4078 606.595 36.9941C611.775 33.2554 618.33 32.1141 624.637 31.1006C630.455 30.1656 636.555 29.274 642.128 31.1895C647.7 33.1049 652.446 38.8045 651.183 44.5604C653.752 43.6752 656.626 45.466 657.896 47.8689C659.166 50.2718 659.233 53.1064 659.271 55.824C662.01 57.7598 665.127 53.9158 666.244 50.7529C668.864 43.3285 671.193 35.4255 669.782 27.6799C668.37 19.9343 662.058 12.5322 654.185 12.5059C655.141 11.4562 655.651 10.076 655.607 8.65715L649.118 8.10884C650.765 7.87558 652.28 7.07679 653.403 5.8493C650.798 8.71623 630.313 0.280481 626.1 0.129871Z" fill="#2F2E41"/>
<path d="M624.215 113.084C624.215 113.084 606.845 96.063 600.594 97.1056C594.343 98.1482 585.809 113.084 585.809 113.084C585.809 113.084 534.601 130.153 536.735 147.222C538.868 164.292 562.339 247.504 562.339 247.504C562.339 247.504 581.542 347.786 564.472 358.454C547.403 369.122 645.551 396.86 647.685 384.058C649.818 371.256 654.086 243.237 647.685 224.034C641.284 204.831 624.215 113.084 624.215 113.084Z" fill="#3F3D56"/>
<path d="M698.893 147.222H725.275C725.275 147.222 743.699 228.301 745.833 236.836C747.967 245.37 752.234 285.91 750.1 285.91C747.967 285.91 705.294 277.375 705.294 283.776L698.893 147.222Z" fill="#3F3D56"/>
<path d="M698.001 348H597.001C587.145 302.66 586.321 258.854 597.001 217H698.001C681.702 258.101 680.683 301.607 698.001 348Z" fill="#F2F2F2"/>
<path d="M555.938 292.311L585.809 305.113C585.809 305.113 643.417 313.647 643.417 290.177C643.417 266.707 585.809 279.509 585.809 279.509L566.604 273.369L555.938 292.311Z" fill="#A0616A"/>
<path d="M562.338 134.42L536.734 140.821L517.531 253.905C517.531 253.905 511.13 283.776 521.799 285.91C532.467 288.044 562.338 305.113 562.338 305.113C562.338 305.113 566.605 273.108 575.14 273.108L553.804 256.039L566.605 181.361L562.338 134.42Z" fill="#3F3D56"/>
<path d="M200.248 352.908H60.248V354.908H200.248V352.908Z" fill="#F2F2F2"/>
<path d="M100.248 334.908H98.248V353.408H100.248V334.908Z" fill="#F2F2F2"/>
<path d="M161.248 334.908H159.248V353.408H161.248V334.908Z" fill="#F2F2F2"/>
<path d="M249.248 56.9077H109.248V58.9077H249.248V56.9077Z" fill="#F2F2F2"/>
<path d="M211.248 58.4077H209.248V76.9077H211.248V58.4077Z" fill="#F2F2F2"/>
<path d="M150.248 58.4077H148.248V76.9077H150.248V58.4077Z" fill="#F2F2F2"/>
<path d="M390.248 253.908H250.248V255.908H390.248V253.908Z" fill="#F2F2F2"/>
<path d="M352.248 255.408H350.248V273.908H352.248V255.408Z" fill="#F2F2F2"/>
<path d="M291.248 255.408H289.248V273.908H291.248V255.408Z" fill="#F2F2F2"/>
<path d="M152.248 252.908H12.248V254.908H152.248V252.908Z" fill="#F2F2F2"/>
<path d="M114.248 254.408H112.248V272.908H114.248V254.408Z" fill="#F2F2F2"/>
<path d="M53.248 254.408H51.248V272.908H53.248V254.408Z" fill="#F2F2F2"/>
<path d="M320.248 152.908H180.248V154.908H320.248V152.908Z" fill="#F2F2F2"/>
<path d="M220.248 134.908H218.248V153.408H220.248V134.908Z" fill="#F2F2F2"/>
<path d="M281.248 134.908H279.248V153.408H281.248V134.908Z" fill="#F2F2F2"/>
</g>
<defs>
<clipPath id="clip0_247_622">
<rect width="896" height="747.971" fill="white"/>
</clipPath>
</defs>
</svg>
