<svg width="822" height="154" viewBox="0 0 822 154" fill="none" xmlns="http://www.w3.org/2000/svg">
<path d="M67.889 7.47194L101.508 36.3417L53.2089 49.2835L67.889 7.47194Z" fill="#0C2557"/>
<path d="M130.782 35.2925L122.59 78.8424L87.2325 43.485L130.782 35.2925Z" fill="#0C2557"/>
<path d="M139.151 104.857L97.3396 119.537L110.281 71.2374L139.151 104.857Z" fill="#0C2557"/>
<path d="M81.9798 145.88L48.3607 117.01L96.6599 104.068L81.9798 145.88Z" fill="#0C2557"/>
<path d="M20.4136 118.591L28.6061 75.0409L63.9635 110.398L20.4136 118.591Z" fill="#0C2557"/>
<path d="M11.34 48.4548L53.1515 33.7747L40.2097 82.0739L11.34 48.4548Z" fill="#0C2557"/>
<path d="M179.219 98.1719C179.375 95.6406 179.891 93.7188 180.766 92.4062C181.672 91.0625 183.25 90.3906 185.5 90.3906C186.906 90.3906 188.109 90.7969 189.109 91.6094C190.109 92.3906 190.609 93.4844 190.609 94.8906C190.609 95.7031 190.531 96.5156 190.375 97.3281C190.219 98.1406 190.172 98.9844 190.234 99.8594C190.359 100.922 190.828 101.891 191.641 102.766C192.453 103.641 193.484 104.406 194.734 105.062C195.984 105.688 197.406 106.188 199 106.562C200.594 106.906 202.219 107.078 203.875 107.078C205.562 107.078 207.234 106.938 208.891 106.656C210.578 106.344 212.094 105.781 213.438 104.969C214.812 104.156 215.922 103.047 216.766 101.641C217.609 100.234 218.031 98.4062 218.031 96.1562C218.031 94.6875 217.672 93.3125 216.953 92.0312C216.234 90.7188 215.312 89.5312 214.188 88.4688C213.062 87.375 211.812 86.3906 210.438 85.5156C209.094 84.6406 207.797 83.875 206.547 83.2188C204.766 82.3125 202.938 81.4375 201.062 80.5938C199.219 79.7188 197.406 78.8125 195.625 77.875C193.875 76.9062 192.203 75.8594 190.609 74.7344C189.047 73.5781 187.672 72.2344 186.484 70.7031C185.297 69.1719 184.359 67.4062 183.672 65.4062C182.984 63.375 182.641 61.0312 182.641 58.375C182.641 55.4062 183.266 52.8438 184.516 50.6875C185.797 48.5312 187.469 46.75 189.531 45.3438C191.594 43.9375 193.953 42.9062 196.609 42.25C199.297 41.5625 202.047 41.2188 204.859 41.2188C207.359 41.2188 209.781 41.4375 212.125 41.875C214.469 42.3125 216.562 43.0312 218.406 44.0312C220.25 45 221.781 46.3125 223 47.9688C224.219 49.5938 224.953 51.5938 225.203 53.9688C225.266 54.8438 225.156 55.625 224.875 56.3125C224.594 56.9688 224.203 57.5312 223.703 58C223.203 58.4375 222.625 58.7812 221.969 59.0312C221.344 59.25 220.703 59.3594 220.047 59.3594C219.047 59.3594 218.203 59.2031 217.516 58.8906C216.828 58.5781 216.266 58.1875 215.828 57.7188C215.391 57.25 215.062 56.7188 214.844 56.125C214.625 55.5312 214.484 54.9531 214.422 54.3906C213.953 53.6406 213.344 53.0312 212.594 52.5625C211.844 52.0625 211 51.6719 210.062 51.3906C209.156 51.0781 208.203 50.875 207.203 50.7812C206.203 50.6562 205.234 50.5938 204.297 50.5938C202.984 50.5938 201.672 50.7344 200.359 51.0156C199.078 51.2969 197.906 51.75 196.844 52.375C195.781 53 194.922 53.7969 194.266 54.7656C193.609 55.7344 193.281 56.9219 193.281 58.3281C193.281 59.9844 193.672 61.4531 194.453 62.7344C195.234 64.0156 196.219 65.1562 197.406 66.1562C198.594 67.1562 199.906 68.0625 201.344 68.875C202.812 69.6875 204.234 70.4375 205.609 71.125C207.266 71.9688 208.984 72.875 210.766 73.8438C212.547 74.7812 214.281 75.8125 215.969 76.9375C217.688 78.0312 219.312 79.2344 220.844 80.5469C222.375 81.8594 223.719 83.3281 224.875 84.9531C226.031 86.5469 226.938 88.2969 227.594 90.2031C228.281 92.1094 228.625 94.2188 228.625 96.5312C228.625 99 228.281 101.203 227.594 103.141C226.906 105.078 225.969 106.781 224.781 108.25C223.594 109.719 222.203 110.969 220.609 112C219.016 113.031 217.297 113.875 215.453 114.531C213.609 115.188 211.688 115.656 209.688 115.938C207.719 116.25 205.75 116.406 203.781 116.406C202.125 116.406 200.344 116.266 198.438 115.984C196.562 115.703 194.703 115.266 192.859 114.672C191.016 114.047 189.25 113.266 187.562 112.328C185.906 111.359 184.438 110.203 183.156 108.859C181.906 107.484 180.922 105.922 180.203 104.172C179.484 102.391 179.156 100.391 179.219 98.1719ZM256.516 108.531C251.984 96.9375 248.344 87.8125 245.594 81.1562C242.844 74.4688 240.891 70.0938 239.734 68.0312V68.0781C239.203 67.1719 238.734 66.1719 238.328 65.0781C237.922 63.9531 237.719 63.0469 237.719 62.3594C237.719 61.5156 237.891 60.7812 238.234 60.1562C238.578 59.5 239.016 58.9688 239.547 58.5625C240.109 58.125 240.719 57.7969 241.375 57.5781C242.031 57.3594 242.672 57.25 243.297 57.25C244.172 57.25 244.875 57.3594 245.406 57.5781C245.969 57.7969 246.422 58.1094 246.766 58.5156C247.141 58.9219 247.453 59.4219 247.703 60.0156C247.953 60.5781 248.219 61.2344 248.5 61.9844C251.156 68.0469 253.688 74.1875 256.094 80.4062C258.5 86.5938 261.047 92.9844 263.734 99.5781C264.391 97.8594 265.016 96.1562 265.609 94.4688C266.203 92.7812 266.844 91 267.531 89.125C268.312 86.9688 269.062 84.875 269.781 82.8438C270.5 80.7812 271.25 78.75 272.031 76.75C271.406 75.25 270.766 73.7656 270.109 72.2969C269.453 70.7969 268.734 69.3125 267.953 67.8438C267.422 66.9062 267.016 65.9844 266.734 65.0781C266.484 64.1406 266.359 63.3125 266.359 62.5938C266.359 61.75 266.5 61 266.781 60.3438C267.062 59.6875 267.438 59.125 267.906 58.6562C268.406 58.1875 268.953 57.8438 269.547 57.625C270.172 57.375 270.812 57.25 271.469 57.25C272.344 57.25 273.078 57.4062 273.672 57.7188C274.266 58 274.766 58.3906 275.172 58.8906C275.578 59.3594 275.922 59.9062 276.203 60.5312C276.484 61.1562 276.75 61.7969 277 62.4531C277.062 62.6406 277.109 62.7969 277.141 62.9219C277.203 63.0469 277.281 63.2188 277.375 63.4375L277.609 62.7812C277.891 62.125 278.203 61.4688 278.547 60.8125C278.891 60.125 279.297 59.5312 279.766 59.0312C280.266 58.5 280.828 58.0781 281.453 57.7656C282.078 57.4219 282.812 57.25 283.656 57.25C284.281 57.25 284.891 57.3594 285.484 57.5781C286.109 57.7969 286.672 58.125 287.172 58.5625C287.672 59 288.062 59.5312 288.344 60.1562C288.656 60.7812 288.812 61.4844 288.812 62.2656C288.812 63.0781 288.656 63.8125 288.344 64.4688C288.062 65.125 287.75 65.75 287.406 66.3438L282.766 76.8906L291.859 99.5781L304.094 66.7188C304.312 65.7812 304.578 64.7656 304.891 63.6719C305.203 62.5781 305.625 61.5625 306.156 60.625C306.688 59.6562 307.359 58.8594 308.172 58.2344C309.016 57.5781 310.062 57.25 311.312 57.25C312.156 57.25 312.922 57.4062 313.609 57.7188C314.297 58 314.891 58.375 315.391 58.8438C315.891 59.3125 316.266 59.8594 316.516 60.4844C316.797 61.0781 316.938 61.6719 316.938 62.2656C316.938 62.9844 316.828 63.6406 316.609 64.2344C316.391 64.7969 316.125 65.3594 315.812 65.9219C315.531 66.4531 315.203 66.9844 314.828 67.5156C314.484 68.0156 314.172 68.5625 313.891 69.1562C313.703 69.5312 313.438 70.1406 313.094 70.9844C312.781 71.8281 312.391 72.8438 311.922 74.0312C311.453 75.2188 310.938 76.5312 310.375 77.9688C309.844 79.4062 309.281 80.8906 308.688 82.4219C307.969 84.3281 307.203 86.2969 306.391 88.3281C305.609 90.3594 304.828 92.375 304.047 94.375C303.266 96.375 302.484 98.3125 301.703 100.188C300.953 102.031 300.25 103.719 299.594 105.25C299.156 106.219 298.812 107.094 298.562 107.875C298.312 108.625 298.094 109.359 297.906 110.078C297.594 111.047 297.297 111.922 297.016 112.703C296.734 113.453 296.375 114.109 295.938 114.672C295.531 115.203 294.984 115.609 294.297 115.891C293.641 116.203 292.781 116.359 291.719 116.359C290.406 116.359 289.188 115.688 288.062 114.344C286.938 113 285.812 110.969 284.688 108.25C283.469 105.188 282.297 102.109 281.172 99.0156C280.047 95.9219 278.828 92.7656 277.516 89.5469C276.203 92.9219 274.844 96.2656 273.438 99.5781C272.062 102.891 270.828 106.375 269.734 110.031C269.453 110.875 269.156 111.688 268.844 112.469C268.562 113.219 268.188 113.891 267.719 114.484C267.281 115.047 266.734 115.5 266.078 115.844C265.453 116.188 264.672 116.359 263.734 116.359C262.984 116.359 262.297 116.219 261.672 115.938C261.047 115.656 260.453 115.203 259.891 114.578C259.328 113.922 258.766 113.109 258.203 112.141C257.672 111.141 257.109 109.938 256.516 108.531ZM335.172 93.8594C335.766 96.2031 336.641 98.1719 337.797 99.7656C338.984 101.328 340.312 102.594 341.781 103.562C343.25 104.531 344.797 105.234 346.422 105.672C348.078 106.078 349.688 106.281 351.25 106.281C353.688 106.281 355.859 106.078 357.766 105.672C359.672 105.234 361.297 104.719 362.641 104.125C364.016 103.5 365.125 102.859 365.969 102.203C366.812 101.547 367.406 100.969 367.75 100.469C368.062 100 368.406 99.5625 368.781 99.1562C369.188 98.7188 369.609 98.3438 370.047 98.0312C370.516 97.6875 370.969 97.4219 371.406 97.2344C371.875 97.0469 372.312 96.9531 372.719 96.9531C374.281 96.9531 375.484 97.4219 376.328 98.3594C377.203 99.2656 377.641 100.5 377.641 102.062C377.641 102.656 377.422 103.406 376.984 104.312C376.547 105.219 375.734 106.219 374.547 107.312C373.234 108.531 371.766 109.688 370.141 110.781C368.547 111.875 366.781 112.844 364.844 113.688C362.906 114.5 360.797 115.141 358.516 115.609C356.266 116.109 353.828 116.359 351.203 116.359C348.109 116.359 345.281 115.938 342.719 115.094C340.156 114.281 337.859 113.172 335.828 111.766C333.797 110.328 332.031 108.672 330.531 106.797C329.031 104.922 327.781 102.922 326.781 100.797C325.781 98.6719 325.031 96.4844 324.531 94.2344C324.031 91.9844 323.781 89.7969 323.781 87.6719C323.781 83.0469 324.531 78.875 326.031 75.1562C327.531 71.4062 329.594 68.2031 332.219 65.5469C334.844 62.8906 337.953 60.8438 341.547 59.4062C345.141 57.9688 349.031 57.25 353.219 57.25C356.219 57.25 359.031 57.7031 361.656 58.6094C364.281 59.4844 366.609 60.7344 368.641 62.3594C370.703 63.9531 372.422 65.875 373.797 68.125C375.203 70.3438 376.188 72.7969 376.75 75.4844C377.375 76.0156 377.828 76.7188 378.109 77.5938C378.422 78.4375 378.578 79.2812 378.578 80.125C378.578 81.5312 378.094 82.6875 377.125 83.5938C376.188 84.4688 375 85.0781 373.562 85.4219C370.406 86.2344 367.25 86.9844 364.094 87.6719C360.938 88.3594 357.766 89.0312 354.578 89.6875C351.391 90.3438 348.172 91.0156 344.922 91.7031C341.703 92.3906 338.453 93.1094 335.172 93.8594ZM334.375 85.1875C339.688 83.9375 345.062 82.7656 350.5 81.6719C355.938 80.5781 361.469 79.3594 367.094 78.0156C366.562 76.5781 365.844 75.2188 364.938 73.9375C364.031 72.625 362.969 71.4844 361.75 70.5156C360.531 69.5469 359.172 68.7812 357.672 68.2188C356.203 67.6562 354.609 67.375 352.891 67.375C350.234 67.375 347.812 67.8125 345.625 68.6875C343.469 69.5312 341.594 70.7344 340 72.2969C338.406 73.8281 337.125 75.7031 336.156 77.9219C335.188 80.1094 334.594 82.5312 334.375 85.1875ZM400.891 93.8594C401.484 96.2031 402.359 98.1719 403.516 99.7656C404.703 101.328 406.031 102.594 407.5 103.562C408.969 104.531 410.516 105.234 412.141 105.672C413.797 106.078 415.406 106.281 416.969 106.281C419.406 106.281 421.578 106.078 423.484 105.672C425.391 105.234 427.016 104.719 428.359 104.125C429.734 103.5 430.844 102.859 431.688 102.203C432.531 101.547 433.125 100.969 433.469 100.469C433.781 100 434.125 99.5625 434.5 99.1562C434.906 98.7188 435.328 98.3438 435.766 98.0312C436.234 97.6875 436.688 97.4219 437.125 97.2344C437.594 97.0469 438.031 96.9531 438.438 96.9531C440 96.9531 441.203 97.4219 442.047 98.3594C442.922 99.2656 443.359 100.5 443.359 102.062C443.359 102.656 443.141 103.406 442.703 104.312C442.266 105.219 441.453 106.219 440.266 107.312C438.953 108.531 437.484 109.688 435.859 110.781C434.266 111.875 432.5 112.844 430.562 113.688C428.625 114.5 426.516 115.141 424.234 115.609C421.984 116.109 419.547 116.359 416.922 116.359C413.828 116.359 411 115.938 408.438 115.094C405.875 114.281 403.578 113.172 401.547 111.766C399.516 110.328 397.75 108.672 396.25 106.797C394.75 104.922 393.5 102.922 392.5 100.797C391.5 98.6719 390.75 96.4844 390.25 94.2344C389.75 91.9844 389.5 89.7969 389.5 87.6719C389.5 83.0469 390.25 78.875 391.75 75.1562C393.25 71.4062 395.312 68.2031 397.938 65.5469C400.562 62.8906 403.672 60.8438 407.266 59.4062C410.859 57.9688 414.75 57.25 418.938 57.25C421.938 57.25 424.75 57.7031 427.375 58.6094C430 59.4844 432.328 60.7344 434.359 62.3594C436.422 63.9531 438.141 65.875 439.516 68.125C440.922 70.3438 441.906 72.7969 442.469 75.4844C443.094 76.0156 443.547 76.7188 443.828 77.5938C444.141 78.4375 444.297 79.2812 444.297 80.125C444.297 81.5312 443.812 82.6875 442.844 83.5938C441.906 84.4688 440.719 85.0781 439.281 85.4219C436.125 86.2344 432.969 86.9844 429.812 87.6719C426.656 88.3594 423.484 89.0312 420.297 89.6875C417.109 90.3438 413.891 91.0156 410.641 91.7031C407.422 92.3906 404.172 93.1094 400.891 93.8594ZM400.094 85.1875C405.406 83.9375 410.781 82.7656 416.219 81.6719C421.656 80.5781 427.188 79.3594 432.812 78.0156C432.281 76.5781 431.562 75.2188 430.656 73.9375C429.75 72.625 428.688 71.4844 427.469 70.5156C426.25 69.5469 424.891 68.7812 423.391 68.2188C421.922 67.6562 420.328 67.375 418.609 67.375C415.953 67.375 413.531 67.8125 411.344 68.6875C409.188 69.5312 407.312 70.7344 405.719 72.2969C404.125 73.8281 402.844 75.7031 401.875 77.9219C400.906 80.1094 400.312 82.5312 400.094 85.1875ZM463.234 101.406L462.953 68.3594L457.281 68.4062C456.562 68.4062 455.938 68.2656 455.406 67.9844C454.875 67.6719 454.422 67.2656 454.047 66.7656C453.703 66.2344 453.438 65.6406 453.25 64.9844C453.062 64.3281 452.969 63.6406 452.969 62.9219C452.969 61.7031 453.109 60.7812 453.391 60.1562C453.703 59.5 454.141 59.0312 454.703 58.75C455.266 58.4375 455.953 58.2656 456.766 58.2344C457.578 58.1719 458.516 58.1406 459.578 58.1406H462.906V56.4062C462.906 55.25 462.891 54.3125 462.859 53.5938C462.859 52.875 462.859 52.3906 462.859 52.1406C462.859 51.2344 462.766 50.3281 462.578 49.4219C462.422 48.5156 462.344 47.5938 462.344 46.6562C462.344 45.875 462.438 45.1875 462.625 44.5938C462.812 44 463.125 43.5 463.562 43.0938C464.031 42.6562 464.641 42.3281 465.391 42.1094C466.141 41.8906 467.062 41.7812 468.156 41.7812C468.906 41.7812 469.609 41.8438 470.266 41.9688C470.953 42.0938 471.547 42.3438 472.047 42.7188C472.578 43.0625 473 43.5469 473.312 44.1719C473.625 44.7969 473.781 45.6094 473.781 46.6094C473.781 47.9531 473.656 49.2812 473.406 50.5938C473.188 51.9062 473.094 53.2656 473.125 54.6719V58.0938C475.562 58.0312 477.453 57.9844 478.797 57.9531C480.172 57.9219 481.281 57.8906 482.125 57.8594C482.25 57.8594 482.359 57.8594 482.453 57.8594C482.578 57.8281 482.688 57.8125 482.781 57.8125C483.156 57.7812 483.578 57.7656 484.047 57.7656C484.516 57.7656 484.891 57.7656 485.172 57.7656C485.766 57.7656 486.344 57.8594 486.906 58.0469C487.469 58.2344 487.953 58.5469 488.359 58.9844C488.797 59.4219 489.141 59.9844 489.391 60.6719C489.641 61.3594 489.766 62.1875 489.766 63.1562C489.766 63.9062 489.703 64.6094 489.578 65.2656C489.453 65.9219 489.219 66.5 488.875 67C488.531 67.5 488.031 67.9062 487.375 68.2188C486.719 68.5 485.875 68.6406 484.844 68.6406C483.875 68.6406 482.891 68.5938 481.891 68.5C480.922 68.375 479.922 68.2969 478.891 68.2656L473.219 68.3125L473.547 105.297C474.828 105.078 475.953 104.875 476.922 104.688C477.891 104.5 478.797 104.312 479.641 104.125C480.484 103.938 481.312 103.719 482.125 103.469C482.938 103.219 483.828 102.906 484.797 102.531C485.328 102.25 485.953 101.969 486.672 101.688C487.391 101.375 488.141 101.219 488.922 101.219C490.453 101.219 491.656 101.75 492.531 102.812C493.406 103.844 493.844 105.203 493.844 106.891C493.844 107.328 493.734 107.812 493.516 108.344C493.328 108.875 493.031 109.406 492.625 109.938C492.219 110.438 491.688 110.906 491.031 111.344C490.406 111.75 489.656 112.047 488.781 112.234C487.844 112.422 486.766 112.656 485.547 112.938C484.328 113.219 483.047 113.516 481.703 113.828C480.359 114.141 479.016 114.453 477.672 114.766C476.328 115.078 475.062 115.344 473.875 115.562C472.688 115.812 471.641 116.016 470.734 116.172C469.828 116.328 469.141 116.391 468.672 116.359C468.109 116.359 467.484 116.281 466.797 116.125C466.141 116 465.531 115.75 464.969 115.375C464.406 115.031 463.938 114.547 463.562 113.922C463.219 113.266 463.047 112.438 463.047 111.438L463.234 101.406ZM546.062 111.578C546.062 109.984 546.172 108.422 546.391 106.891C546.641 105.359 546.766 103.734 546.766 102.016C546.766 100.734 546.75 99.4688 546.719 98.2188C546.719 96.9688 546.703 95.6406 546.672 94.2344C546.672 92.8281 546.656 91.2969 546.625 89.6406C546.594 87.9531 546.547 86.0469 546.484 83.9219C546.453 81.7969 546.406 79.3906 546.344 76.7031C546.281 74.0156 546.219 70.9375 546.156 67.4688C545.75 67.5312 545.281 67.5938 544.75 67.6562C544.25 67.6875 543.609 67.7031 542.828 67.7031C542.266 67.7031 541.688 67.6094 541.094 67.4219C540.5 67.2344 539.969 66.9531 539.5 66.5781C539.031 66.1719 538.641 65.6562 538.328 65.0312C538.016 64.375 537.859 63.5781 537.859 62.6406C537.859 60.9531 538.297 59.6875 539.172 58.8438C540.047 57.9688 541.109 57.5312 542.359 57.5312C542.859 57.5312 543.344 57.5938 543.812 57.7188C544.281 57.8438 544.781 57.9062 545.312 57.9062C546.562 57.9062 547.797 57.8438 549.016 57.7188C550.266 57.5938 551.578 57.5312 552.953 57.5312C554.297 57.5312 555.219 57.9531 555.719 58.7969C556.25 59.6406 556.516 60.8281 556.516 62.3594V63.2969C558.984 61.2344 561.594 59.7188 564.344 58.75C567.094 57.75 569.656 57.25 572.031 57.25C575.938 57.25 579.406 57.8125 582.438 58.9375C585.469 60.0625 588.047 61.7344 590.172 63.9531C591.484 62.8906 592.859 61.9375 594.297 61.0938C595.734 60.25 597.172 59.5469 598.609 58.9844C600.078 58.4219 601.516 58 602.922 57.7188C604.328 57.4062 605.672 57.25 606.953 57.25C610.891 57.25 614.469 57.8438 617.688 59.0312C620.906 60.1875 623.656 61.9062 625.938 64.1875C628.25 66.4688 630.031 69.2812 631.281 72.625C632.531 75.9375 633.156 79.7656 633.156 84.1094C633.156 85.4844 633.062 87.0469 632.875 88.7969C632.719 90.5156 632.484 92.2969 632.172 94.1406C631.859 95.9531 631.484 97.75 631.047 99.5312C630.609 101.281 630.141 102.859 629.641 104.266C630.047 104.141 630.375 104.062 630.625 104.031C630.875 104 631.094 103.984 631.281 103.984C632.375 103.984 633.25 104.188 633.906 104.594C634.562 105 635.062 105.484 635.406 106.047C635.781 106.609 636.016 107.203 636.109 107.828C636.234 108.422 636.297 108.922 636.297 109.328C636.297 110.297 636.125 111.094 635.781 111.719C635.438 112.312 634.828 112.828 633.953 113.266C633.109 113.672 631.953 114.047 630.484 114.391C629.047 114.734 627.219 115.141 625 115.609C624.031 115.859 623.234 116.062 622.609 116.219C622.016 116.375 621.469 116.453 620.969 116.453C619.969 116.453 619.109 116.297 618.391 115.984C617.672 115.703 617.078 115.328 616.609 114.859C616.172 114.359 615.844 113.781 615.625 113.125C615.406 112.438 615.297 111.719 615.297 110.969C615.297 110.156 615.516 109.25 615.953 108.25C616.391 107.219 616.969 106.297 617.688 105.484C618.406 104.297 619.062 102.859 619.656 101.172C620.25 99.4531 620.75 97.625 621.156 95.6875C621.594 93.75 621.922 91.7812 622.141 89.7812C622.359 87.7812 622.469 85.8906 622.469 84.1094C622.469 81.6094 622.156 79.3281 621.531 77.2656C620.938 75.2031 619.984 73.4375 618.672 71.9688C617.391 70.5 615.75 69.3594 613.75 68.5469C611.781 67.7344 609.438 67.3281 606.719 67.3281C605.344 67.3281 604.109 67.4375 603.016 67.6562C601.953 67.8438 600.953 68.125 600.016 68.5C599.109 68.875 598.25 69.3438 597.438 69.9062C596.625 70.4688 595.812 71.125 595 71.875C596.281 75.375 596.922 79.4531 596.922 84.1094C596.922 85.5156 596.828 87.1094 596.641 88.8906C596.453 90.6719 596.188 92.5 595.844 94.375C595.5 96.25 595.062 98.0938 594.531 99.9062C594 101.719 593.406 103.375 592.75 104.875C593.25 104.781 593.766 104.641 594.297 104.453C594.828 104.234 595.406 104.125 596.031 104.125C597.062 104.125 597.891 104.328 598.516 104.734C599.172 105.141 599.656 105.641 599.969 106.234C600.312 106.797 600.531 107.422 600.625 108.109C600.75 108.766 600.812 109.359 600.812 109.891C600.812 110.891 600.609 111.688 600.203 112.281C599.828 112.844 599.328 113.297 598.703 113.641C598.078 113.953 597.359 114.188 596.547 114.344C595.734 114.469 594.906 114.578 594.062 114.672C593.219 114.766 592.391 114.875 591.578 115C590.797 115.156 590.094 115.391 589.469 115.703C589.375 115.766 589.156 115.828 588.812 115.891C588.469 115.984 588.094 116.062 587.688 116.125C587.312 116.219 586.922 116.297 586.516 116.359C586.141 116.422 585.844 116.453 585.625 116.453C584.594 116.453 583.719 116.266 583 115.891C582.281 115.516 581.688 115.031 581.219 114.438C580.781 113.844 580.453 113.188 580.234 112.469C580.047 111.75 579.953 111.047 579.953 110.359C579.953 109.547 580.078 108.734 580.328 107.922C580.578 107.078 580.922 106.297 581.359 105.578C582.047 104.328 582.688 102.844 583.281 101.125C583.875 99.375 584.375 97.5469 584.781 95.6406C585.219 93.7031 585.562 91.75 585.812 89.7812C586.062 87.7812 586.188 85.8906 586.188 84.1094C586.188 81.6094 585.938 79.3281 585.438 77.2656C584.969 75.2031 584.172 73.4375 583.047 71.9688C581.922 70.5 580.438 69.3594 578.594 68.5469C576.781 67.7344 574.531 67.3281 571.844 67.3281C569.188 67.3281 566.578 67.9062 564.016 69.0625C561.484 70.1875 558.984 72 556.516 74.5C556.516 75.9062 556.5 77.6562 556.469 79.75C556.469 81.8125 556.469 84 556.469 86.3125C556.469 88.625 556.469 90.9219 556.469 93.2031C556.469 95.4844 556.469 97.5312 556.469 99.3438C556.5 101.156 556.516 102.625 556.516 103.75C556.547 104.844 556.578 105.344 556.609 105.25C557.172 105.094 557.625 104.969 557.969 104.875C558.344 104.75 558.641 104.656 558.859 104.594C559.109 104.531 559.297 104.5 559.422 104.5C559.547 104.469 559.688 104.453 559.844 104.453C561.531 104.453 562.812 104.875 563.688 105.719C564.562 106.531 565 107.734 565 109.328C565 110.516 564.766 111.453 564.297 112.141C563.828 112.828 563.234 113.375 562.516 113.781C561.797 114.188 560.984 114.484 560.078 114.672C559.172 114.828 558.297 114.953 557.453 115.047C556.922 115.109 556.375 115.219 555.812 115.375C555.25 115.531 554.688 115.688 554.125 115.844C553.562 116 553 116.141 552.438 116.266C551.875 116.391 551.359 116.453 550.891 116.453C549.047 116.453 547.781 116.016 547.094 115.141C546.406 114.297 546.062 113.109 546.062 111.578ZM659.734 93.8594C660.328 96.2031 661.203 98.1719 662.359 99.7656C663.547 101.328 664.875 102.594 666.344 103.562C667.812 104.531 669.359 105.234 670.984 105.672C672.641 106.078 674.25 106.281 675.812 106.281C678.25 106.281 680.422 106.078 682.328 105.672C684.234 105.234 685.859 104.719 687.203 104.125C688.578 103.5 689.688 102.859 690.531 102.203C691.375 101.547 691.969 100.969 692.312 100.469C692.625 100 692.969 99.5625 693.344 99.1562C693.75 98.7188 694.172 98.3438 694.609 98.0312C695.078 97.6875 695.531 97.4219 695.969 97.2344C696.438 97.0469 696.875 96.9531 697.281 96.9531C698.844 96.9531 700.047 97.4219 700.891 98.3594C701.766 99.2656 702.203 100.5 702.203 102.062C702.203 102.656 701.984 103.406 701.547 104.312C701.109 105.219 700.297 106.219 699.109 107.312C697.797 108.531 696.328 109.688 694.703 110.781C693.109 111.875 691.344 112.844 689.406 113.688C687.469 114.5 685.359 115.141 683.078 115.609C680.828 116.109 678.391 116.359 675.766 116.359C672.672 116.359 669.844 115.938 667.281 115.094C664.719 114.281 662.422 113.172 660.391 111.766C658.359 110.328 656.594 108.672 655.094 106.797C653.594 104.922 652.344 102.922 651.344 100.797C650.344 98.6719 649.594 96.4844 649.094 94.2344C648.594 91.9844 648.344 89.7969 648.344 87.6719C648.344 83.0469 649.094 78.875 650.594 75.1562C652.094 71.4062 654.156 68.2031 656.781 65.5469C659.406 62.8906 662.516 60.8438 666.109 59.4062C669.703 57.9688 673.594 57.25 677.781 57.25C680.781 57.25 683.594 57.7031 686.219 58.6094C688.844 59.4844 691.172 60.7344 693.203 62.3594C695.266 63.9531 696.984 65.875 698.359 68.125C699.766 70.3438 700.75 72.7969 701.312 75.4844C701.938 76.0156 702.391 76.7188 702.672 77.5938C702.984 78.4375 703.141 79.2812 703.141 80.125C703.141 81.5312 702.656 82.6875 701.688 83.5938C700.75 84.4688 699.562 85.0781 698.125 85.4219C694.969 86.2344 691.812 86.9844 688.656 87.6719C685.5 88.3594 682.328 89.0312 679.141 89.6875C675.953 90.3438 672.734 91.0156 669.484 91.7031C666.266 92.3906 663.016 93.1094 659.734 93.8594ZM658.938 85.1875C664.25 83.9375 669.625 82.7656 675.062 81.6719C680.5 80.5781 686.031 79.3594 691.656 78.0156C691.125 76.5781 690.406 75.2188 689.5 73.9375C688.594 72.625 687.531 71.4844 686.312 70.5156C685.094 69.5469 683.734 68.7812 682.234 68.2188C680.766 67.6562 679.172 67.375 677.453 67.375C674.797 67.375 672.375 67.8125 670.188 68.6875C668.031 69.5312 666.156 70.7344 664.562 72.2969C662.969 73.8281 661.688 75.7031 660.719 77.9219C659.75 80.1094 659.156 82.5312 658.938 85.1875ZM725.453 93.8594C726.047 96.2031 726.922 98.1719 728.078 99.7656C729.266 101.328 730.594 102.594 732.062 103.562C733.531 104.531 735.078 105.234 736.703 105.672C738.359 106.078 739.969 106.281 741.531 106.281C743.969 106.281 746.141 106.078 748.047 105.672C749.953 105.234 751.578 104.719 752.922 104.125C754.297 103.5 755.406 102.859 756.25 102.203C757.094 101.547 757.688 100.969 758.031 100.469C758.344 100 758.688 99.5625 759.062 99.1562C759.469 98.7188 759.891 98.3438 760.328 98.0312C760.797 97.6875 761.25 97.4219 761.688 97.2344C762.156 97.0469 762.594 96.9531 763 96.9531C764.562 96.9531 765.766 97.4219 766.609 98.3594C767.484 99.2656 767.922 100.5 767.922 102.062C767.922 102.656 767.703 103.406 767.266 104.312C766.828 105.219 766.016 106.219 764.828 107.312C763.516 108.531 762.047 109.688 760.422 110.781C758.828 111.875 757.062 112.844 755.125 113.688C753.188 114.5 751.078 115.141 748.797 115.609C746.547 116.109 744.109 116.359 741.484 116.359C738.391 116.359 735.562 115.938 733 115.094C730.438 114.281 728.141 113.172 726.109 111.766C724.078 110.328 722.312 108.672 720.812 106.797C719.312 104.922 718.062 102.922 717.062 100.797C716.062 98.6719 715.312 96.4844 714.812 94.2344C714.312 91.9844 714.062 89.7969 714.062 87.6719C714.062 83.0469 714.812 78.875 716.312 75.1562C717.812 71.4062 719.875 68.2031 722.5 65.5469C725.125 62.8906 728.234 60.8438 731.828 59.4062C735.422 57.9688 739.312 57.25 743.5 57.25C746.5 57.25 749.312 57.7031 751.938 58.6094C754.562 59.4844 756.891 60.7344 758.922 62.3594C760.984 63.9531 762.703 65.875 764.078 68.125C765.484 70.3438 766.469 72.7969 767.031 75.4844C767.656 76.0156 768.109 76.7188 768.391 77.5938C768.703 78.4375 768.859 79.2812 768.859 80.125C768.859 81.5312 768.375 82.6875 767.406 83.5938C766.469 84.4688 765.281 85.0781 763.844 85.4219C760.688 86.2344 757.531 86.9844 754.375 87.6719C751.219 88.3594 748.047 89.0312 744.859 89.6875C741.672 90.3438 738.453 91.0156 735.203 91.7031C731.984 92.3906 728.734 93.1094 725.453 93.8594ZM724.656 85.1875C729.969 83.9375 735.344 82.7656 740.781 81.6719C746.219 80.5781 751.75 79.3594 757.375 78.0156C756.844 76.5781 756.125 75.2188 755.219 73.9375C754.312 72.625 753.25 71.4844 752.031 70.5156C750.812 69.5469 749.453 68.7812 747.953 68.2188C746.484 67.6562 744.891 67.375 743.172 67.375C740.516 67.375 738.094 67.8125 735.906 68.6875C733.75 69.5312 731.875 70.7344 730.281 72.2969C728.688 73.8281 727.406 75.7031 726.438 77.9219C725.469 80.1094 724.875 82.5312 724.656 85.1875ZM787.797 101.406L787.516 68.3594L781.844 68.4062C781.125 68.4062 780.5 68.2656 779.969 67.9844C779.438 67.6719 778.984 67.2656 778.609 66.7656C778.266 66.2344 778 65.6406 777.812 64.9844C777.625 64.3281 777.531 63.6406 777.531 62.9219C777.531 61.7031 777.672 60.7812 777.953 60.1562C778.266 59.5 778.703 59.0312 779.266 58.75C779.828 58.4375 780.516 58.2656 781.328 58.2344C782.141 58.1719 783.078 58.1406 784.141 58.1406H787.469V56.4062C787.469 55.25 787.453 54.3125 787.422 53.5938C787.422 52.875 787.422 52.3906 787.422 52.1406C787.422 51.2344 787.328 50.3281 787.141 49.4219C786.984 48.5156 786.906 47.5938 786.906 46.6562C786.906 45.875 787 45.1875 787.188 44.5938C787.375 44 787.688 43.5 788.125 43.0938C788.594 42.6562 789.203 42.3281 789.953 42.1094C790.703 41.8906 791.625 41.7812 792.719 41.7812C793.469 41.7812 794.172 41.8438 794.828 41.9688C795.516 42.0938 796.109 42.3438 796.609 42.7188C797.141 43.0625 797.562 43.5469 797.875 44.1719C798.188 44.7969 798.344 45.6094 798.344 46.6094C798.344 47.9531 798.219 49.2812 797.969 50.5938C797.75 51.9062 797.656 53.2656 797.688 54.6719V58.0938C800.125 58.0312 802.016 57.9844 803.359 57.9531C804.734 57.9219 805.844 57.8906 806.688 57.8594C806.812 57.8594 806.922 57.8594 807.016 57.8594C807.141 57.8281 807.25 57.8125 807.344 57.8125C807.719 57.7812 808.141 57.7656 808.609 57.7656C809.078 57.7656 809.453 57.7656 809.734 57.7656C810.328 57.7656 810.906 57.8594 811.469 58.0469C812.031 58.2344 812.516 58.5469 812.922 58.9844C813.359 59.4219 813.703 59.9844 813.953 60.6719C814.203 61.3594 814.328 62.1875 814.328 63.1562C814.328 63.9062 814.266 64.6094 814.141 65.2656C814.016 65.9219 813.781 66.5 813.438 67C813.094 67.5 812.594 67.9062 811.938 68.2188C811.281 68.5 810.438 68.6406 809.406 68.6406C808.438 68.6406 807.453 68.5938 806.453 68.5C805.484 68.375 804.484 68.2969 803.453 68.2656L797.781 68.3125L798.109 105.297C799.391 105.078 800.516 104.875 801.484 104.688C802.453 104.5 803.359 104.312 804.203 104.125C805.047 103.938 805.875 103.719 806.688 103.469C807.5 103.219 808.391 102.906 809.359 102.531C809.891 102.25 810.516 101.969 811.234 101.688C811.953 101.375 812.703 101.219 813.484 101.219C815.016 101.219 816.219 101.75 817.094 102.812C817.969 103.844 818.406 105.203 818.406 106.891C818.406 107.328 818.297 107.812 818.078 108.344C817.891 108.875 817.594 109.406 817.188 109.938C816.781 110.438 816.25 110.906 815.594 111.344C814.969 111.75 814.219 112.047 813.344 112.234C812.406 112.422 811.328 112.656 810.109 112.938C808.891 113.219 807.609 113.516 806.266 113.828C804.922 114.141 803.578 114.453 802.234 114.766C800.891 115.078 799.625 115.344 798.438 115.562C797.25 115.812 796.203 116.016 795.297 116.172C794.391 116.328 793.703 116.391 793.234 116.359C792.672 116.359 792.047 116.281 791.359 116.125C790.703 116 790.094 115.75 789.531 115.375C788.969 115.031 788.5 114.547 788.125 113.922C787.781 113.266 787.609 112.438 787.609 111.438L787.797 101.406Z" fill="#0C2557"/>
</svg>
