<svg width="24" height="24" viewBox="0 0 24 24" fill="none" xmlns="http://www.w3.org/2000/svg">
<path fill-rule="evenodd" clip-rule="evenodd" d="M17.7452 15.441L24 21.646L21.6271 24L15.3391 17.762C13.7625 18.833 11.8584 19.46 9.80806 19.46C4.40002 19.46 0 15.096 0 9.73C0 4.365 4.40002 0 9.80806 0C15.2171 0 19.6171 4.365 19.6171 9.73C19.6171 11.862 18.9216 13.836 17.7452 15.441ZM9.80906 2.853C5.98664 2.853 2.8769 5.938 2.8769 9.73C2.8769 13.522 5.98564 16.607 9.80906 16.607C13.6315 16.607 16.7412 13.522 16.7412 9.73C16.7412 5.938 13.6315 2.853 9.80906 2.853Z" fill="#0C2557"/>
</svg>
