<svg width="32" height="32" viewBox="0 0 32 32" fill="none" xmlns="http://www.w3.org/2000/svg">
<path d="M16 0.754883C24.822 0.754883 32 6.57888 32 13.7389C32 16.6049 30.89 19.1849 28.57 21.7269C25.214 25.5909 17.708 30.2969 16 31.0169C14.34 31.7169 14.532 30.6229 14.608 30.1909L14.614 30.1549L14.842 28.7849C14.896 28.3769 14.952 27.7429 14.79 27.3389C14.61 26.8929 13.902 26.6609 13.382 26.5489C5.692 25.5349 0 20.1569 0 13.7389C0 6.57888 7.18 0.754883 16 0.754883ZM10.044 16.1269H6.994V10.5909C6.994 10.5085 6.96141 10.4294 6.90333 10.371C6.84525 10.3125 6.7664 10.2794 6.684 10.2789H5.56C5.51903 10.2789 5.47846 10.287 5.4406 10.3026C5.40275 10.3183 5.36835 10.3413 5.33938 10.3703C5.31041 10.3992 5.28743 10.4336 5.27175 10.4715C5.25607 10.5093 5.248 10.5499 5.248 10.5909V17.5629C5.248 17.6449 5.282 17.7229 5.336 17.7769V17.7789L5.34 17.7829L5.344 17.7869C5.37247 17.8149 5.40624 17.8369 5.44333 17.8517C5.48042 17.8664 5.52009 17.8736 5.56 17.8729H10.044C10.216 17.8729 10.354 17.7329 10.354 17.5609V16.4409C10.3543 16.3999 10.3465 16.3593 10.331 16.3213C10.3156 16.2834 10.2928 16.2488 10.264 16.2197C10.2352 16.1905 10.201 16.1673 10.1632 16.1514C10.1255 16.1355 10.085 16.1271 10.044 16.1269ZM11.626 10.2789C11.5433 10.2789 11.4639 10.3118 11.4054 10.3703C11.3469 10.4288 11.314 10.5081 11.314 10.5909V17.5629C11.314 17.7349 11.454 17.8729 11.626 17.8729H12.75C12.922 17.8729 13.06 17.7329 13.06 17.5629V10.5909C13.06 10.5085 13.0274 10.4294 12.9693 10.371C12.9112 10.3125 12.8324 10.2794 12.75 10.2789H11.626ZM19.352 10.2789C19.2693 10.2789 19.1899 10.3118 19.1314 10.3703C19.0729 10.4288 19.04 10.5081 19.04 10.5909V14.7309L15.846 10.4189L15.82 10.3889L15.8 10.3669L15.794 10.3609L15.772 10.3429L15.76 10.3349L15.754 10.3309L15.744 10.3249L15.728 10.3149H15.724L15.718 10.3109L15.698 10.3029L15.69 10.2989L15.67 10.2929H15.666L15.66 10.2909L15.642 10.2869H15.63L15.624 10.2849H15.616L15.612 10.2829H14.464C14.3816 10.2829 14.3025 10.3155 14.2441 10.3736C14.1856 10.4316 14.1525 10.5105 14.152 10.5929V17.5649C14.152 17.7369 14.292 17.8749 14.464 17.8749H15.584C15.758 17.8749 15.898 17.7349 15.898 17.5649V13.4249L19.098 17.7449C19.1204 17.7737 19.1467 17.7992 19.176 17.8209L19.178 17.8229L19.198 17.8349L19.206 17.8389L19.222 17.8469L19.236 17.8529L19.246 17.8569L19.266 17.8629H19.272C19.2982 17.8696 19.325 17.8736 19.352 17.8749H20.472C20.646 17.8749 20.786 17.7349 20.786 17.5649V10.5909C20.786 10.5081 20.7531 10.4288 20.6946 10.3703C20.6361 10.3118 20.5567 10.2789 20.474 10.2789H19.352ZM26.982 11.7129V10.5929C26.9823 10.5519 26.9745 10.5113 26.959 10.4733C26.9436 10.4354 26.9208 10.4008 26.892 10.3717C26.8632 10.3425 26.829 10.3193 26.7912 10.3034C26.7535 10.2875 26.713 10.2791 26.672 10.2789H22.188C22.1075 10.28 22.0304 10.3114 21.972 10.3669H21.97L21.968 10.3709L21.964 10.3769C21.909 10.4347 21.8776 10.5111 21.876 10.5909V17.5629C21.876 17.6449 21.91 17.7229 21.964 17.7769L21.968 17.7829L21.972 17.7869C22.0307 17.8416 22.1078 17.8723 22.188 17.8729H26.672C26.844 17.8729 26.982 17.7329 26.982 17.5609V16.4409C26.9823 16.3999 26.9745 16.3593 26.959 16.3213C26.9436 16.2834 26.9208 16.2488 26.892 16.2197C26.8632 16.1905 26.829 16.1673 26.7912 16.1514C26.7535 16.1355 26.713 16.1271 26.672 16.1269H23.62V14.9489H26.67C26.842 14.9489 26.98 14.8089 26.98 14.6369V13.5169C26.9803 13.4759 26.9725 13.4353 26.957 13.3973C26.9416 13.3594 26.9188 13.3248 26.89 13.2957C26.8612 13.2665 26.827 13.2433 26.7892 13.2274C26.7515 13.2115 26.711 13.2031 26.67 13.2029H23.62V12.0249H26.67C26.842 12.0249 26.98 11.8849 26.98 11.7129H26.982Z" fill="#0C2557"/>
</svg>
