<!DOCTYPE svg PUBLIC "-//W3C//DTD SVG 1.1//EN" "http://www.w3.org/Graphics/SVG/1.1/DTD/svg11.dtd">
<!-- Uploaded to: SVG Repo, www.svgrepo.com, Transformed by: SVG Repo Mixer Tools -->
<svg height="800px" width="800px" version="1.1" id="Layer_1" xmlns="http://www.w3.org/2000/svg" xmlns:xlink="http://www.w3.org/1999/xlink" viewBox="0 0 473.931 473.931" xml:space="preserve" fill="#000000">
<g id="SVGRepo_bgCarrier" stroke-width="0"/>
<g id="SVGRepo_tracerCarrier" stroke-linecap="round" stroke-linejoin="round"/>
<g id="SVGRepo_iconCarrier"> <circle style="fill:#C1C1C1;" cx="236.966" cy="236.966" r="236.966"/> <path style="fill:#F8F3DC;" d="M100.885,340.13c-1.456-30.675,4.131-82.588,4.131-82.588l266.709-24.602 c0,0,2.11,56.321-6.301,94.816C361.997,343.4,101.361,350.188,100.885,340.13z"/> <path style="fill:#EEE4B8;" d="M101.652,305.762c0-22.054,3.36-48.224,3.36-48.224l266.709-24.602c0,0-0.423,27.91-0.423,52.224 c0,7.334-66.27,10.619-133.109,12.075C170.209,298.708,101.652,305.762,101.652,305.762z"/> <path style="fill:#DDD2A5;" d="M349.084,346.768c-25.586,15.749-234.227,11.809-244.071,0c-3.712-4.453-4.625-11.064-4.318-29.855 c0.03-1.774,268.434-12.206,268.434-12.206C366.214,329.997,360.41,339.797,349.084,346.768z"/> <path style="fill:#E89423;" d="M349.084,360.874c-25.586,15.749-234.227,11.809-244.071,0c-2.163-2.593-3.375-10.72-3.955-20.771 c-0.206-3.592,82.244-0.333,148.488-2.915c66.233-2.586,116.264-11.016,115.343-7.094 C361.476,344.665,356.451,356.343,349.084,360.874z"/> <g> <path style="fill:#F8F3DC;" d="M282.162,170.935l-177.15,86.603c0,0,266.709-3.936,266.709-24.602S282.162,170.935,282.162,170.935 z"/> <ellipse transform="matrix(-0.3246 -0.9458 0.9458 -0.3246 23.5667 457.6592)" style="fill:#F8F3DC;" cx="175.18" cy="220.416" rx="13.399" ry="17.099"/> <ellipse transform="matrix(-0.3247 -0.9458 0.9458 -0.3247 -21.8939 453.0494)" style="fill:#F8F3DC;" cx="150.788" cy="234.341" rx="12.269" ry="15.655"/> <ellipse transform="matrix(-0.3246 -0.9458 0.9458 -0.3246 72.4686 462.3824)" style="fill:#F8F3DC;" cx="201.317" cy="205.318" rx="14.259" ry="18.195"/> <ellipse transform="matrix(-0.3247 -0.9458 0.9458 -0.3247 116.1546 467.9973)" style="fill:#F8F3DC;" cx="225.148" cy="192.533" rx="15.116" ry="19.296"/> <ellipse transform="matrix(-0.3245 -0.9459 0.9459 -0.3245 175.6501 475.6847)" style="fill:#F8F3DC;" cx="257.68" cy="175.122" rx="16.849" ry="21.497"/> <ellipse transform="matrix(0.0531 -0.9986 0.9986 0.0531 -57.5197 449.1285)" style="fill:#F8F3DC;" cx="208.063" cy="254.894" rx="17.048" ry="21.747"/> <ellipse transform="matrix(0.0532 -0.9986 0.9986 0.0532 -94.5604 412.6684)" style="fill:#F8F3DC;" cx="170.339" cy="256.2" rx="15.611" ry="19.91"/> <ellipse transform="matrix(0.0532 -0.9986 0.9986 0.0532 -13.9457 484.3021)" style="fill:#F8F3DC;" cx="248.422" cy="249.505" rx="18.144" ry="23.147"/> <ellipse transform="matrix(0.0533 -0.9986 0.9986 0.0533 31.9276 527.6026)" style="fill:#F8F3DC;" cx="294.221" cy="246.963" rx="19.244" ry="24.543"/> <ellipse transform="matrix(0.0532 -0.9986 0.9986 0.0532 82.3809 568.3022)" style="fill:#F8F3DC;" cx="340.883" cy="240.708" rx="21.429" ry="27.334"/> </g> <path style="fill:#E97539;" d="M274.402,113.192c-5.545,0-10.058,1.994-10.058,7.551v86.603c0,5.553,4.509,10.058,10.058,10.058 c5.56,0,10.062-4.505,10.062-10.058v-86.603C284.464,115.19,279.962,113.192,274.402,113.192z"/> <path style="fill:#F7DF56;" d="M268.239,79.438c1.908-5.459,1.534-13.706,1.534-13.706S288,79.598,286.705,96.796 c-0.52,6.844-5.658,12.423-12.628,12.43c-6.986-0.007-12.636-5.564-12.636-12.43C261.444,90.109,266.005,85.873,268.239,79.438z"/> <g style="opacity:0.8;"> <path style="fill:#FFFFFF;" d="M270.395,90.109c1.197-3.454,0.965-8.677,0.965-8.677s11.547,8.789,10.728,19.685 c-0.322,4.337-3.581,7.873-8.004,7.873c-4.423-0.004-8.011-3.528-8.011-7.873C266.077,96.878,268.973,94.188,270.395,90.109z"/> </g> </g>
</svg>