<!DOCTYPE svg PUBLIC "-//W3C//DTD SVG 1.1//EN" "http://www.w3.org/Graphics/SVG/1.1/DTD/svg11.dtd">
<!-- Uploaded to: SVG Repo, www.svgrepo.com, Transformed by: SVG Repo Mixer Tools -->
<svg width="800px" height="800px" viewBox="0 0 64 64" data-name="Lovely Valentine's day" id="Lovely_Valentine_s_day" xmlns="http://www.w3.org/2000/svg" fill="#ffffff">
<g id="SVGRepo_bgCarrier" stroke-width="0"/>
<g id="SVGRepo_tracerCarrier" stroke-linecap="round" stroke-linejoin="round"/>
<g id="SVGRepo_iconCarrier">
<defs>
<style>.cls-1{fill:#0C2557;}.cls-2{fill:#9799B8;}.cls-3{fill:#623905;}.cls-4{fill:#FFF8B3;}.cls-5{fill:#9799B8;}.cls-6{fill:#DBDDE0;}</style>
</defs>
<title/>
<circle class="cls-1" cx="32" cy="32" r="28"/>
<rect class="cls-2" height="7" rx="3.385" width="29" x="17" y="29"/>
<path class="cls-3" d="M42.615,37H20.385A4.39,4.39,0,0,1,16,32.615v-.23A4.39,4.39,0,0,1,20.385,28h22.23A4.39,4.39,0,0,1,47,32.385v.23A4.39,4.39,0,0,1,42.615,37Zm-22.23-7A2.388,2.388,0,0,0,18,32.385v.23A2.388,2.388,0,0,0,20.385,35h22.23A2.388,2.388,0,0,0,45,32.615v-.23A2.388,2.388,0,0,0,42.615,30Z"/>
<rect class="cls-2" height="5" rx="2.398" width="23" x="20" y="24"/>
<path class="cls-3" d="M40.6,30H22.4A3.4,3.4,0,0,1,19,26.6v-.2A3.4,3.4,0,0,1,22.4,23H40.6A3.4,3.4,0,0,1,44,26.4v.2A3.4,3.4,0,0,1,40.6,30ZM22.4,25A1.4,1.4,0,0,0,21,26.4v.2A1.4,1.4,0,0,0,22.4,28H40.6A1.4,1.4,0,0,0,42,26.6v-.2A1.4,1.4,0,0,0,40.6,25Z"/>
<path class="cls-2" d="M34.58,24H28a2,2,0,0,1-2-2h0a2,2,0,0,1,2-2c3.466,1.03,6.728-.039,9.585-1.333A1,1,0,0,1,39,19.575v0A4.42,4.42,0,0,1,34.58,24Z"/>
<path class="cls-3" d="M34.58,25H28a3,3,0,0,1,0-6,.983.983,0,0,1,.285.042c3.219.957,6.3-.114,8.888-1.286A2,2,0,0,1,40,19.575,5.427,5.427,0,0,1,34.58,25Zm-6.7-3.993A1,1,0,0,0,28,23h6.58A3.424,3.424,0,0,0,38,19.58C35.117,20.884,31.668,22.069,27.882,21.007Z"/>
<path class="cls-4" d="M35.862,13.856a1.833,1.833,0,0,1-.545,1.312L34.005,16.48l-1.3,1.3a1,1,0,0,1-1.416,0l-1.3-1.3-1.24-1.24a1.927,1.927,0,0,1-.275-2.458,1.858,1.858,0,0,1,2.828-.239l.693.694.613-.613a1.948,1.948,0,0,1,2.347-.357A1.832,1.832,0,0,1,35.862,13.856Z"/>
<path class="cls-3" d="M32,19.076a1.987,1.987,0,0,1-1.416-.588l-2.537-2.541a2.935,2.935,0,0,1-.38-3.748A2.856,2.856,0,0,1,32,11.825a2.92,2.92,0,0,1,3.471-.416,2.85,2.85,0,0,1,.546,4.472l-2.6,2.607A1.987,1.987,0,0,1,32,19.076ZM29.993,13c-.024,0-.047,0-.071,0a.855.855,0,0,0-.632.363.934.934,0,0,0,.17,1.166L32,17.076l2.611-2.615a.85.85,0,0,0-.165-1.336.944.944,0,0,0-1.126.206l-.613.613a1,1,0,0,1-1.414,0L30.6,13.25A.856.856,0,0,0,29.993,13Z"/>
<circle class="cls-4" cx="25" cy="24" r="2"/>
<path class="cls-3" d="M25,27a3,3,0,1,1,3-3A3,3,0,0,1,25,27Zm0-4a1,1,0,1,0,1,1A1,1,0,0,0,25,23Z"/>
<circle class="cls-4" cx="14" cy="50" r="2"/>
<path class="cls-3" d="M14,53a3,3,0,1,1,3-3A3,3,0,0,1,14,53Zm0-4a1,1,0,1,0,1,1A1,1,0,0,0,14,49Z"/>
<circle class="cls-4" cx="38" cy="28" r="2"/>
<path class="cls-3" d="M38,31a3,3,0,1,1,3-3A3,3,0,0,1,38,31Zm0-4a1,1,0,1,0,1,1A1,1,0,0,0,38,27Z"/>
<path class="cls-5" d="M42.416,52H20.584a2,2,0,0,1-1.947-1.542l-3.059-13A2,2,0,0,1,17.525,35h27.95a2,2,0,0,1,1.947,2.458l-3.059,13A2,2,0,0,1,42.416,52Z"/>
<path class="cls-3" d="M42.416,53H20.584a2.988,2.988,0,0,1-2.92-2.313l-3.059-13A3,3,0,0,1,17.525,34h27.95a3,3,0,0,1,2.92,3.688l-3.059,13A2.988,2.988,0,0,1,42.416,53ZM17.525,36a1,1,0,0,0-.973,1.229l3.059,13a1,1,0,0,0,.973.771H42.416a1,1,0,0,0,.973-.771l3.059-13A1,1,0,0,0,45.475,36Z"/>
<path class="cls-6" d="M22.168,49a1,1,0,0,1-.973-.771l-2.118-9A1,1,0,0,1,20.051,38h22.9a1,1,0,0,1,.974,1.229l-2.118,9a1,1,0,0,1-.973.771Z"/>
<path class="cls-3" d="M31.5,52.5a1,1,0,0,1-1-1V40a1,1,0,0,1,2,0V51.5A1,1,0,0,1,31.5,52.5Z"/>
<path class="cls-3" d="M40.5,52.5a1.043,1.043,0,0,1-.252-.032,1,1,0,0,1-.716-1.22l3-11.5a1,1,0,1,1,1.936.5l-3,11.5A1,1,0,0,1,40.5,52.5Z"/>
<path class="cls-3" d="M26.5,52.5a1,1,0,0,1-.995-.913l-1-11.5a1,1,0,0,1,1.992-.174l1,11.5a1,1,0,0,1-.91,1.083A.844.844,0,0,1,26.5,52.5Z"/>
<path class="cls-3" d="M36.5,52.5a.844.844,0,0,1-.087,0,1,1,0,0,1-.91-1.083l1-11.5a1,1,0,0,1,1.992.174l-1,11.5A1,1,0,0,1,36.5,52.5Z"/>
<path class="cls-3" d="M22.5,52.5a1,1,0,0,1-.968-.748l-3-11.5a1,1,0,1,1,1.936-.5l3,11.5a1,1,0,0,1-.716,1.22A1.043,1.043,0,0,1,22.5,52.5Z"/>
<path class="cls-4" d="M50.713,51a1.828,1.828,0,0,1-1.313.542H47.544l-1.838,0a1,1,0,0,1-1-1l0-1.838V46.947a1.927,1.927,0,0,1,1.543-1.932,1.859,1.859,0,0,1,2.169,1.831v.98h.866A1.947,1.947,0,0,1,51.2,49.234,1.831,1.831,0,0,1,50.713,51Z"/>
<path class="cls-3" d="M45.7,52.541a2,2,0,0,1-2-2l0-3.592a2.937,2.937,0,0,1,2.381-2.919,2.881,2.881,0,0,1,2.323.641,2.848,2.848,0,0,1,1.007,2.16,2.917,2.917,0,0,1,2.748,2.161,2.85,2.85,0,0,1-2.776,3.548l-3.683,0Zm.86-6.551a.9.9,0,0,0-.151.013.933.933,0,0,0-.7.944l0,3.595,3.7,0a.733.733,0,0,0,.605-.249h0a.837.837,0,0,0,.221-.81.947.947,0,0,0-.942-.652h-.867a1,1,0,0,1-1-1v-.98a.855.855,0,0,0-.855-.856Z"/>
</g>
</svg>