<svg width="640" height="76" viewBox="0 0 640 76" fill="none" xmlns="http://www.w3.org/2000/svg">
<path d="M0.21875 57.1719C0.375 54.6406 0.890625 52.7188 1.76562 51.4062C2.67188 50.0625 4.25 49.3906 6.5 49.3906C7.90625 49.3906 9.10938 49.7969 10.1094 50.6094C11.1094 51.3906 11.6094 52.4844 11.6094 53.8906C11.6094 54.7031 11.5312 55.5156 11.375 56.3281C11.2188 57.1406 11.1719 57.9844 11.2344 58.8594C11.3594 59.9219 11.8281 60.8906 12.6406 61.7656C13.4531 62.6406 14.4844 63.4062 15.7344 64.0625C16.9844 64.6875 18.4062 65.1875 20 65.5625C21.5938 65.9062 23.2188 66.0781 24.875 66.0781C26.5625 66.0781 28.2344 65.9375 29.8906 65.6562C31.5781 65.3438 33.0938 64.7812 34.4375 63.9688C35.8125 63.1562 36.9219 62.0469 37.7656 60.6406C38.6094 59.2344 39.0312 57.4062 39.0312 55.1562C39.0312 53.6875 38.6719 52.3125 37.9531 51.0312C37.2344 49.7188 36.3125 48.5312 35.1875 47.4688C34.0625 46.375 32.8125 45.3906 31.4375 44.5156C30.0938 43.6406 28.7969 42.875 27.5469 42.2188C25.7656 41.3125 23.9375 40.4375 22.0625 39.5938C20.2188 38.7188 18.4062 37.8125 16.625 36.875C14.875 35.9062 13.2031 34.8594 11.6094 33.7344C10.0469 32.5781 8.67188 31.2344 7.48438 29.7031C6.29688 28.1719 5.35938 26.4062 4.67188 24.4062C3.98438 22.375 3.64062 20.0312 3.64062 17.375C3.64062 14.4062 4.26562 11.8438 5.51562 9.6875C6.79688 7.53125 8.46875 5.75 10.5312 4.34375C12.5938 2.9375 14.9531 1.90625 17.6094 1.25C20.2969 0.5625 23.0469 0.21875 25.8594 0.21875C28.3594 0.21875 30.7812 0.4375 33.125 0.875C35.4688 1.3125 37.5625 2.03125 39.4062 3.03125C41.25 4 42.7812 5.3125 44 6.96875C45.2188 8.59375 45.9531 10.5938 46.2031 12.9688C46.2656 13.8438 46.1562 14.625 45.875 15.3125C45.5938 15.9688 45.2031 16.5312 44.7031 17C44.2031 17.4375 43.625 17.7812 42.9688 18.0312C42.3438 18.25 41.7031 18.3594 41.0469 18.3594C40.0469 18.3594 39.2031 18.2031 38.5156 17.8906C37.8281 17.5781 37.2656 17.1875 36.8281 16.7188C36.3906 16.25 36.0625 15.7188 35.8438 15.125C35.625 14.5312 35.4844 13.9531 35.4219 13.3906C34.9531 12.6406 34.3438 12.0312 33.5938 11.5625C32.8438 11.0625 32 10.6719 31.0625 10.3906C30.1562 10.0781 29.2031 9.875 28.2031 9.78125C27.2031 9.65625 26.2344 9.59375 25.2969 9.59375C23.9844 9.59375 22.6719 9.73438 21.3594 10.0156C20.0781 10.2969 18.9062 10.75 17.8438 11.375C16.7812 12 15.9219 12.7969 15.2656 13.7656C14.6094 14.7344 14.2812 15.9219 14.2812 17.3281C14.2812 18.9844 14.6719 20.4531 15.4531 21.7344C16.2344 23.0156 17.2188 24.1562 18.4062 25.1562C19.5938 26.1562 20.9062 27.0625 22.3438 27.875C23.8125 28.6875 25.2344 29.4375 26.6094 30.125C28.2656 30.9688 29.9844 31.875 31.7656 32.8438C33.5469 33.7812 35.2812 34.8125 36.9688 35.9375C38.6875 37.0312 40.3125 38.2344 41.8438 39.5469C43.375 40.8594 44.7188 42.3281 45.875 43.9531C47.0312 45.5469 47.9375 47.2969 48.5938 49.2031C49.2812 51.1094 49.625 53.2188 49.625 55.5312C49.625 58 49.2812 60.2031 48.5938 62.1406C47.9062 64.0781 46.9688 65.7812 45.7812 67.25C44.5938 68.7188 43.2031 69.9688 41.6094 71C40.0156 72.0312 38.2969 72.875 36.4531 73.5312C34.6094 74.1875 32.6875 74.6562 30.6875 74.9375C28.7188 75.25 26.75 75.4062 24.7812 75.4062C23.125 75.4062 21.3438 75.2656 19.4375 74.9844C17.5625 74.7031 15.7031 74.2656 13.8594 73.6719C12.0156 73.0469 10.25 72.2656 8.5625 71.3281C6.90625 70.3594 5.4375 69.2031 4.15625 67.8594C2.90625 66.4844 1.92188 64.9219 1.20312 63.1719C0.484375 61.3906 0.15625 59.3906 0.21875 57.1719ZM77.5156 67.5312C72.9844 55.9375 69.3438 46.8125 66.5938 40.1562C63.8438 33.4688 61.8906 29.0938 60.7344 27.0312V27.0781C60.2031 26.1719 59.7344 25.1719 59.3281 24.0781C58.9219 22.9531 58.7188 22.0469 58.7188 21.3594C58.7188 20.5156 58.8906 19.7812 59.2344 19.1562C59.5781 18.5 60.0156 17.9688 60.5469 17.5625C61.1094 17.125 61.7188 16.7969 62.375 16.5781C63.0312 16.3594 63.6719 16.25 64.2969 16.25C65.1719 16.25 65.875 16.3594 66.4062 16.5781C66.9688 16.7969 67.4219 17.1094 67.7656 17.5156C68.1406 17.9219 68.4531 18.4219 68.7031 19.0156C68.9531 19.5781 69.2188 20.2344 69.5 20.9844C72.1562 27.0469 74.6875 33.1875 77.0938 39.4062C79.5 45.5938 82.0469 51.9844 84.7344 58.5781C85.3906 56.8594 86.0156 55.1562 86.6094 53.4688C87.2031 51.7812 87.8438 50 88.5312 48.125C89.3125 45.9688 90.0625 43.875 90.7812 41.8438C91.5 39.7812 92.25 37.75 93.0312 35.75C92.4062 34.25 91.7656 32.7656 91.1094 31.2969C90.4531 29.7969 89.7344 28.3125 88.9531 26.8438C88.4219 25.9062 88.0156 24.9844 87.7344 24.0781C87.4844 23.1406 87.3594 22.3125 87.3594 21.5938C87.3594 20.75 87.5 20 87.7812 19.3438C88.0625 18.6875 88.4375 18.125 88.9062 17.6562C89.4062 17.1875 89.9531 16.8438 90.5469 16.625C91.1719 16.375 91.8125 16.25 92.4688 16.25C93.3438 16.25 94.0781 16.4062 94.6719 16.7188C95.2656 17 95.7656 17.3906 96.1719 17.8906C96.5781 18.3594 96.9219 18.9062 97.2031 19.5312C97.4844 20.1562 97.75 20.7969 98 21.4531C98.0625 21.6406 98.1094 21.7969 98.1406 21.9219C98.2031 22.0469 98.2812 22.2188 98.375 22.4375L98.6094 21.7812C98.8906 21.125 99.2031 20.4688 99.5469 19.8125C99.8906 19.125 100.297 18.5312 100.766 18.0312C101.266 17.5 101.828 17.0781 102.453 16.7656C103.078 16.4219 103.812 16.25 104.656 16.25C105.281 16.25 105.891 16.3594 106.484 16.5781C107.109 16.7969 107.672 17.125 108.172 17.5625C108.672 18 109.062 18.5312 109.344 19.1562C109.656 19.7812 109.812 20.4844 109.812 21.2656C109.812 22.0781 109.656 22.8125 109.344 23.4688C109.062 24.125 108.75 24.75 108.406 25.3438L103.766 35.8906L112.859 58.5781L125.094 25.7188C125.312 24.7812 125.578 23.7656 125.891 22.6719C126.203 21.5781 126.625 20.5625 127.156 19.625C127.688 18.6562 128.359 17.8594 129.172 17.2344C130.016 16.5781 131.062 16.25 132.312 16.25C133.156 16.25 133.922 16.4062 134.609 16.7188C135.297 17 135.891 17.375 136.391 17.8438C136.891 18.3125 137.266 18.8594 137.516 19.4844C137.797 20.0781 137.938 20.6719 137.938 21.2656C137.938 21.9844 137.828 22.6406 137.609 23.2344C137.391 23.7969 137.125 24.3594 136.812 24.9219C136.531 25.4531 136.203 25.9844 135.828 26.5156C135.484 27.0156 135.172 27.5625 134.891 28.1562C134.703 28.5312 134.438 29.1406 134.094 29.9844C133.781 30.8281 133.391 31.8438 132.922 33.0312C132.453 34.2188 131.938 35.5312 131.375 36.9688C130.844 38.4062 130.281 39.8906 129.688 41.4219C128.969 43.3281 128.203 45.2969 127.391 47.3281C126.609 49.3594 125.828 51.375 125.047 53.375C124.266 55.375 123.484 57.3125 122.703 59.1875C121.953 61.0312 121.25 62.7188 120.594 64.25C120.156 65.2188 119.812 66.0938 119.562 66.875C119.312 67.625 119.094 68.3594 118.906 69.0781C118.594 70.0469 118.297 70.9219 118.016 71.7031C117.734 72.4531 117.375 73.1094 116.938 73.6719C116.531 74.2031 115.984 74.6094 115.297 74.8906C114.641 75.2031 113.781 75.3594 112.719 75.3594C111.406 75.3594 110.188 74.6875 109.062 73.3438C107.938 72 106.812 69.9688 105.688 67.25C104.469 64.1875 103.297 61.1094 102.172 58.0156C101.047 54.9219 99.8281 51.7656 98.5156 48.5469C97.2031 51.9219 95.8438 55.2656 94.4375 58.5781C93.0625 61.8906 91.8281 65.375 90.7344 69.0312C90.4531 69.875 90.1562 70.6875 89.8438 71.4688C89.5625 72.2188 89.1875 72.8906 88.7188 73.4844C88.2812 74.0469 87.7344 74.5 87.0781 74.8438C86.4531 75.1875 85.6719 75.3594 84.7344 75.3594C83.9844 75.3594 83.2969 75.2188 82.6719 74.9375C82.0469 74.6562 81.4531 74.2031 80.8906 73.5781C80.3281 72.9219 79.7656 72.1094 79.2031 71.1406C78.6719 70.1406 78.1094 68.9375 77.5156 67.5312ZM156.172 52.8594C156.766 55.2031 157.641 57.1719 158.797 58.7656C159.984 60.3281 161.312 61.5938 162.781 62.5625C164.25 63.5312 165.797 64.2344 167.422 64.6719C169.078 65.0781 170.688 65.2812 172.25 65.2812C174.688 65.2812 176.859 65.0781 178.766 64.6719C180.672 64.2344 182.297 63.7188 183.641 63.125C185.016 62.5 186.125 61.8594 186.969 61.2031C187.812 60.5469 188.406 59.9688 188.75 59.4688C189.062 59 189.406 58.5625 189.781 58.1562C190.188 57.7188 190.609 57.3438 191.047 57.0312C191.516 56.6875 191.969 56.4219 192.406 56.2344C192.875 56.0469 193.312 55.9531 193.719 55.9531C195.281 55.9531 196.484 56.4219 197.328 57.3594C198.203 58.2656 198.641 59.5 198.641 61.0625C198.641 61.6562 198.422 62.4062 197.984 63.3125C197.547 64.2188 196.734 65.2188 195.547 66.3125C194.234 67.5312 192.766 68.6875 191.141 69.7812C189.547 70.875 187.781 71.8438 185.844 72.6875C183.906 73.5 181.797 74.1406 179.516 74.6094C177.266 75.1094 174.828 75.3594 172.203 75.3594C169.109 75.3594 166.281 74.9375 163.719 74.0938C161.156 73.2812 158.859 72.1719 156.828 70.7656C154.797 69.3281 153.031 67.6719 151.531 65.7969C150.031 63.9219 148.781 61.9219 147.781 59.7969C146.781 57.6719 146.031 55.4844 145.531 53.2344C145.031 50.9844 144.781 48.7969 144.781 46.6719C144.781 42.0469 145.531 37.875 147.031 34.1562C148.531 30.4062 150.594 27.2031 153.219 24.5469C155.844 21.8906 158.953 19.8438 162.547 18.4062C166.141 16.9688 170.031 16.25 174.219 16.25C177.219 16.25 180.031 16.7031 182.656 17.6094C185.281 18.4844 187.609 19.7344 189.641 21.3594C191.703 22.9531 193.422 24.875 194.797 27.125C196.203 29.3438 197.188 31.7969 197.75 34.4844C198.375 35.0156 198.828 35.7188 199.109 36.5938C199.422 37.4375 199.578 38.2812 199.578 39.125C199.578 40.5312 199.094 41.6875 198.125 42.5938C197.188 43.4688 196 44.0781 194.562 44.4219C191.406 45.2344 188.25 45.9844 185.094 46.6719C181.938 47.3594 178.766 48.0312 175.578 48.6875C172.391 49.3438 169.172 50.0156 165.922 50.7031C162.703 51.3906 159.453 52.1094 156.172 52.8594ZM155.375 44.1875C160.688 42.9375 166.062 41.7656 171.5 40.6719C176.938 39.5781 182.469 38.3594 188.094 37.0156C187.562 35.5781 186.844 34.2188 185.938 32.9375C185.031 31.625 183.969 30.4844 182.75 29.5156C181.531 28.5469 180.172 27.7812 178.672 27.2188C177.203 26.6562 175.609 26.375 173.891 26.375C171.234 26.375 168.812 26.8125 166.625 27.6875C164.469 28.5312 162.594 29.7344 161 31.2969C159.406 32.8281 158.125 34.7031 157.156 36.9219C156.188 39.1094 155.594 41.5312 155.375 44.1875ZM221.891 52.8594C222.484 55.2031 223.359 57.1719 224.516 58.7656C225.703 60.3281 227.031 61.5938 228.5 62.5625C229.969 63.5312 231.516 64.2344 233.141 64.6719C234.797 65.0781 236.406 65.2812 237.969 65.2812C240.406 65.2812 242.578 65.0781 244.484 64.6719C246.391 64.2344 248.016 63.7188 249.359 63.125C250.734 62.5 251.844 61.8594 252.688 61.2031C253.531 60.5469 254.125 59.9688 254.469 59.4688C254.781 59 255.125 58.5625 255.5 58.1562C255.906 57.7188 256.328 57.3438 256.766 57.0312C257.234 56.6875 257.688 56.4219 258.125 56.2344C258.594 56.0469 259.031 55.9531 259.438 55.9531C261 55.9531 262.203 56.4219 263.047 57.3594C263.922 58.2656 264.359 59.5 264.359 61.0625C264.359 61.6562 264.141 62.4062 263.703 63.3125C263.266 64.2188 262.453 65.2188 261.266 66.3125C259.953 67.5312 258.484 68.6875 256.859 69.7812C255.266 70.875 253.5 71.8438 251.562 72.6875C249.625 73.5 247.516 74.1406 245.234 74.6094C242.984 75.1094 240.547 75.3594 237.922 75.3594C234.828 75.3594 232 74.9375 229.438 74.0938C226.875 73.2812 224.578 72.1719 222.547 70.7656C220.516 69.3281 218.75 67.6719 217.25 65.7969C215.75 63.9219 214.5 61.9219 213.5 59.7969C212.5 57.6719 211.75 55.4844 211.25 53.2344C210.75 50.9844 210.5 48.7969 210.5 46.6719C210.5 42.0469 211.25 37.875 212.75 34.1562C214.25 30.4062 216.312 27.2031 218.938 24.5469C221.562 21.8906 224.672 19.8438 228.266 18.4062C231.859 16.9688 235.75 16.25 239.938 16.25C242.938 16.25 245.75 16.7031 248.375 17.6094C251 18.4844 253.328 19.7344 255.359 21.3594C257.422 22.9531 259.141 24.875 260.516 27.125C261.922 29.3438 262.906 31.7969 263.469 34.4844C264.094 35.0156 264.547 35.7188 264.828 36.5938C265.141 37.4375 265.297 38.2812 265.297 39.125C265.297 40.5312 264.812 41.6875 263.844 42.5938C262.906 43.4688 261.719 44.0781 260.281 44.4219C257.125 45.2344 253.969 45.9844 250.812 46.6719C247.656 47.3594 244.484 48.0312 241.297 48.6875C238.109 49.3438 234.891 50.0156 231.641 50.7031C228.422 51.3906 225.172 52.1094 221.891 52.8594ZM221.094 44.1875C226.406 42.9375 231.781 41.7656 237.219 40.6719C242.656 39.5781 248.188 38.3594 253.812 37.0156C253.281 35.5781 252.562 34.2188 251.656 32.9375C250.75 31.625 249.688 30.4844 248.469 29.5156C247.25 28.5469 245.891 27.7812 244.391 27.2188C242.922 26.6562 241.328 26.375 239.609 26.375C236.953 26.375 234.531 26.8125 232.344 27.6875C230.188 28.5312 228.312 29.7344 226.719 31.2969C225.125 32.8281 223.844 34.7031 222.875 36.9219C221.906 39.1094 221.312 41.5312 221.094 44.1875ZM284.234 60.4062L283.953 27.3594L278.281 27.4062C277.562 27.4062 276.938 27.2656 276.406 26.9844C275.875 26.6719 275.422 26.2656 275.047 25.7656C274.703 25.2344 274.438 24.6406 274.25 23.9844C274.062 23.3281 273.969 22.6406 273.969 21.9219C273.969 20.7031 274.109 19.7812 274.391 19.1562C274.703 18.5 275.141 18.0312 275.703 17.75C276.266 17.4375 276.953 17.2656 277.766 17.2344C278.578 17.1719 279.516 17.1406 280.578 17.1406H283.906V15.4062C283.906 14.25 283.891 13.3125 283.859 12.5938C283.859 11.875 283.859 11.3906 283.859 11.1406C283.859 10.2344 283.766 9.32812 283.578 8.42188C283.422 7.51562 283.344 6.59375 283.344 5.65625C283.344 4.875 283.438 4.1875 283.625 3.59375C283.812 3 284.125 2.5 284.562 2.09375C285.031 1.65625 285.641 1.32812 286.391 1.10938C287.141 0.890625 288.062 0.78125 289.156 0.78125C289.906 0.78125 290.609 0.84375 291.266 0.96875C291.953 1.09375 292.547 1.34375 293.047 1.71875C293.578 2.0625 294 2.54688 294.312 3.17188C294.625 3.79688 294.781 4.60938 294.781 5.60938C294.781 6.95312 294.656 8.28125 294.406 9.59375C294.188 10.9062 294.094 12.2656 294.125 13.6719V17.0938C296.562 17.0312 298.453 16.9844 299.797 16.9531C301.172 16.9219 302.281 16.8906 303.125 16.8594C303.25 16.8594 303.359 16.8594 303.453 16.8594C303.578 16.8281 303.688 16.8125 303.781 16.8125C304.156 16.7812 304.578 16.7656 305.047 16.7656C305.516 16.7656 305.891 16.7656 306.172 16.7656C306.766 16.7656 307.344 16.8594 307.906 17.0469C308.469 17.2344 308.953 17.5469 309.359 17.9844C309.797 18.4219 310.141 18.9844 310.391 19.6719C310.641 20.3594 310.766 21.1875 310.766 22.1562C310.766 22.9062 310.703 23.6094 310.578 24.2656C310.453 24.9219 310.219 25.5 309.875 26C309.531 26.5 309.031 26.9062 308.375 27.2188C307.719 27.5 306.875 27.6406 305.844 27.6406C304.875 27.6406 303.891 27.5938 302.891 27.5C301.922 27.375 300.922 27.2969 299.891 27.2656L294.219 27.3125L294.547 64.2969C295.828 64.0781 296.953 63.875 297.922 63.6875C298.891 63.5 299.797 63.3125 300.641 63.125C301.484 62.9375 302.312 62.7188 303.125 62.4688C303.938 62.2188 304.828 61.9062 305.797 61.5312C306.328 61.25 306.953 60.9688 307.672 60.6875C308.391 60.375 309.141 60.2188 309.922 60.2188C311.453 60.2188 312.656 60.75 313.531 61.8125C314.406 62.8438 314.844 64.2031 314.844 65.8906C314.844 66.3281 314.734 66.8125 314.516 67.3438C314.328 67.875 314.031 68.4062 313.625 68.9375C313.219 69.4375 312.688 69.9062 312.031 70.3438C311.406 70.75 310.656 71.0469 309.781 71.2344C308.844 71.4219 307.766 71.6562 306.547 71.9375C305.328 72.2188 304.047 72.5156 302.703 72.8281C301.359 73.1406 300.016 73.4531 298.672 73.7656C297.328 74.0781 296.062 74.3438 294.875 74.5625C293.688 74.8125 292.641 75.0156 291.734 75.1719C290.828 75.3281 290.141 75.3906 289.672 75.3594C289.109 75.3594 288.484 75.2812 287.797 75.125C287.141 75 286.531 74.75 285.969 74.375C285.406 74.0312 284.938 73.5469 284.562 72.9219C284.219 72.2656 284.047 71.4375 284.047 70.4375L284.234 60.4062ZM367.062 70.5781C367.062 68.9844 367.172 67.4219 367.391 65.8906C367.641 64.3594 367.766 62.7344 367.766 61.0156C367.766 59.7344 367.75 58.4688 367.719 57.2188C367.719 55.9688 367.703 54.6406 367.672 53.2344C367.672 51.8281 367.656 50.2969 367.625 48.6406C367.594 46.9531 367.547 45.0469 367.484 42.9219C367.453 40.7969 367.406 38.3906 367.344 35.7031C367.281 33.0156 367.219 29.9375 367.156 26.4688C366.75 26.5312 366.281 26.5938 365.75 26.6562C365.25 26.6875 364.609 26.7031 363.828 26.7031C363.266 26.7031 362.688 26.6094 362.094 26.4219C361.5 26.2344 360.969 25.9531 360.5 25.5781C360.031 25.1719 359.641 24.6562 359.328 24.0312C359.016 23.375 358.859 22.5781 358.859 21.6406C358.859 19.9531 359.297 18.6875 360.172 17.8438C361.047 16.9688 362.109 16.5312 363.359 16.5312C363.859 16.5312 364.344 16.5938 364.812 16.7188C365.281 16.8438 365.781 16.9062 366.312 16.9062C367.562 16.9062 368.797 16.8438 370.016 16.7188C371.266 16.5938 372.578 16.5312 373.953 16.5312C375.297 16.5312 376.219 16.9531 376.719 17.7969C377.25 18.6406 377.516 19.8281 377.516 21.3594V22.2969C379.984 20.2344 382.594 18.7188 385.344 17.75C388.094 16.75 390.656 16.25 393.031 16.25C396.938 16.25 400.406 16.8125 403.438 17.9375C406.469 19.0625 409.047 20.7344 411.172 22.9531C412.484 21.8906 413.859 20.9375 415.297 20.0938C416.734 19.25 418.172 18.5469 419.609 17.9844C421.078 17.4219 422.516 17 423.922 16.7188C425.328 16.4062 426.672 16.25 427.953 16.25C431.891 16.25 435.469 16.8438 438.688 18.0312C441.906 19.1875 444.656 20.9062 446.938 23.1875C449.25 25.4688 451.031 28.2812 452.281 31.625C453.531 34.9375 454.156 38.7656 454.156 43.1094C454.156 44.4844 454.062 46.0469 453.875 47.7969C453.719 49.5156 453.484 51.2969 453.172 53.1406C452.859 54.9531 452.484 56.75 452.047 58.5312C451.609 60.2812 451.141 61.8594 450.641 63.2656C451.047 63.1406 451.375 63.0625 451.625 63.0312C451.875 63 452.094 62.9844 452.281 62.9844C453.375 62.9844 454.25 63.1875 454.906 63.5938C455.562 64 456.062 64.4844 456.406 65.0469C456.781 65.6094 457.016 66.2031 457.109 66.8281C457.234 67.4219 457.297 67.9219 457.297 68.3281C457.297 69.2969 457.125 70.0938 456.781 70.7188C456.438 71.3125 455.828 71.8281 454.953 72.2656C454.109 72.6719 452.953 73.0469 451.484 73.3906C450.047 73.7344 448.219 74.1406 446 74.6094C445.031 74.8594 444.234 75.0625 443.609 75.2188C443.016 75.375 442.469 75.4531 441.969 75.4531C440.969 75.4531 440.109 75.2969 439.391 74.9844C438.672 74.7031 438.078 74.3281 437.609 73.8594C437.172 73.3594 436.844 72.7812 436.625 72.125C436.406 71.4375 436.297 70.7188 436.297 69.9688C436.297 69.1562 436.516 68.25 436.953 67.25C437.391 66.2188 437.969 65.2969 438.688 64.4844C439.406 63.2969 440.062 61.8594 440.656 60.1719C441.25 58.4531 441.75 56.625 442.156 54.6875C442.594 52.75 442.922 50.7812 443.141 48.7812C443.359 46.7812 443.469 44.8906 443.469 43.1094C443.469 40.6094 443.156 38.3281 442.531 36.2656C441.938 34.2031 440.984 32.4375 439.672 30.9688C438.391 29.5 436.75 28.3594 434.75 27.5469C432.781 26.7344 430.438 26.3281 427.719 26.3281C426.344 26.3281 425.109 26.4375 424.016 26.6562C422.953 26.8438 421.953 27.125 421.016 27.5C420.109 27.875 419.25 28.3438 418.438 28.9062C417.625 29.4688 416.812 30.125 416 30.875C417.281 34.375 417.922 38.4531 417.922 43.1094C417.922 44.5156 417.828 46.1094 417.641 47.8906C417.453 49.6719 417.188 51.5 416.844 53.375C416.5 55.25 416.062 57.0938 415.531 58.9062C415 60.7188 414.406 62.375 413.75 63.875C414.25 63.7812 414.766 63.6406 415.297 63.4531C415.828 63.2344 416.406 63.125 417.031 63.125C418.062 63.125 418.891 63.3281 419.516 63.7344C420.172 64.1406 420.656 64.6406 420.969 65.2344C421.312 65.7969 421.531 66.4219 421.625 67.1094C421.75 67.7656 421.812 68.3594 421.812 68.8906C421.812 69.8906 421.609 70.6875 421.203 71.2812C420.828 71.8438 420.328 72.2969 419.703 72.6406C419.078 72.9531 418.359 73.1875 417.547 73.3438C416.734 73.4688 415.906 73.5781 415.062 73.6719C414.219 73.7656 413.391 73.875 412.578 74C411.797 74.1562 411.094 74.3906 410.469 74.7031C410.375 74.7656 410.156 74.8281 409.812 74.8906C409.469 74.9844 409.094 75.0625 408.688 75.125C408.312 75.2188 407.922 75.2969 407.516 75.3594C407.141 75.4219 406.844 75.4531 406.625 75.4531C405.594 75.4531 404.719 75.2656 404 74.8906C403.281 74.5156 402.688 74.0312 402.219 73.4375C401.781 72.8438 401.453 72.1875 401.234 71.4688C401.047 70.75 400.953 70.0469 400.953 69.3594C400.953 68.5469 401.078 67.7344 401.328 66.9219C401.578 66.0781 401.922 65.2969 402.359 64.5781C403.047 63.3281 403.688 61.8438 404.281 60.125C404.875 58.375 405.375 56.5469 405.781 54.6406C406.219 52.7031 406.562 50.75 406.812 48.7812C407.062 46.7812 407.188 44.8906 407.188 43.1094C407.188 40.6094 406.938 38.3281 406.438 36.2656C405.969 34.2031 405.172 32.4375 404.047 30.9688C402.922 29.5 401.438 28.3594 399.594 27.5469C397.781 26.7344 395.531 26.3281 392.844 26.3281C390.188 26.3281 387.578 26.9062 385.016 28.0625C382.484 29.1875 379.984 31 377.516 33.5C377.516 34.9062 377.5 36.6562 377.469 38.75C377.469 40.8125 377.469 43 377.469 45.3125C377.469 47.625 377.469 49.9219 377.469 52.2031C377.469 54.4844 377.469 56.5312 377.469 58.3438C377.5 60.1562 377.516 61.625 377.516 62.75C377.547 63.8438 377.578 64.3438 377.609 64.25C378.172 64.0938 378.625 63.9688 378.969 63.875C379.344 63.75 379.641 63.6562 379.859 63.5938C380.109 63.5312 380.297 63.5 380.422 63.5C380.547 63.4688 380.688 63.4531 380.844 63.4531C382.531 63.4531 383.812 63.875 384.688 64.7188C385.562 65.5312 386 66.7344 386 68.3281C386 69.5156 385.766 70.4531 385.297 71.1406C384.828 71.8281 384.234 72.375 383.516 72.7812C382.797 73.1875 381.984 73.4844 381.078 73.6719C380.172 73.8281 379.297 73.9531 378.453 74.0469C377.922 74.1094 377.375 74.2188 376.812 74.375C376.25 74.5312 375.688 74.6875 375.125 74.8438C374.562 75 374 75.1406 373.438 75.2656C372.875 75.3906 372.359 75.4531 371.891 75.4531C370.047 75.4531 368.781 75.0156 368.094 74.1406C367.406 73.2969 367.062 72.1094 367.062 70.5781ZM480.734 52.8594C481.328 55.2031 482.203 57.1719 483.359 58.7656C484.547 60.3281 485.875 61.5938 487.344 62.5625C488.812 63.5312 490.359 64.2344 491.984 64.6719C493.641 65.0781 495.25 65.2812 496.812 65.2812C499.25 65.2812 501.422 65.0781 503.328 64.6719C505.234 64.2344 506.859 63.7188 508.203 63.125C509.578 62.5 510.688 61.8594 511.531 61.2031C512.375 60.5469 512.969 59.9688 513.312 59.4688C513.625 59 513.969 58.5625 514.344 58.1562C514.75 57.7188 515.172 57.3438 515.609 57.0312C516.078 56.6875 516.531 56.4219 516.969 56.2344C517.438 56.0469 517.875 55.9531 518.281 55.9531C519.844 55.9531 521.047 56.4219 521.891 57.3594C522.766 58.2656 523.203 59.5 523.203 61.0625C523.203 61.6562 522.984 62.4062 522.547 63.3125C522.109 64.2188 521.297 65.2188 520.109 66.3125C518.797 67.5312 517.328 68.6875 515.703 69.7812C514.109 70.875 512.344 71.8438 510.406 72.6875C508.469 73.5 506.359 74.1406 504.078 74.6094C501.828 75.1094 499.391 75.3594 496.766 75.3594C493.672 75.3594 490.844 74.9375 488.281 74.0938C485.719 73.2812 483.422 72.1719 481.391 70.7656C479.359 69.3281 477.594 67.6719 476.094 65.7969C474.594 63.9219 473.344 61.9219 472.344 59.7969C471.344 57.6719 470.594 55.4844 470.094 53.2344C469.594 50.9844 469.344 48.7969 469.344 46.6719C469.344 42.0469 470.094 37.875 471.594 34.1562C473.094 30.4062 475.156 27.2031 477.781 24.5469C480.406 21.8906 483.516 19.8438 487.109 18.4062C490.703 16.9688 494.594 16.25 498.781 16.25C501.781 16.25 504.594 16.7031 507.219 17.6094C509.844 18.4844 512.172 19.7344 514.203 21.3594C516.266 22.9531 517.984 24.875 519.359 27.125C520.766 29.3438 521.75 31.7969 522.312 34.4844C522.938 35.0156 523.391 35.7188 523.672 36.5938C523.984 37.4375 524.141 38.2812 524.141 39.125C524.141 40.5312 523.656 41.6875 522.688 42.5938C521.75 43.4688 520.562 44.0781 519.125 44.4219C515.969 45.2344 512.812 45.9844 509.656 46.6719C506.5 47.3594 503.328 48.0312 500.141 48.6875C496.953 49.3438 493.734 50.0156 490.484 50.7031C487.266 51.3906 484.016 52.1094 480.734 52.8594ZM479.938 44.1875C485.25 42.9375 490.625 41.7656 496.062 40.6719C501.5 39.5781 507.031 38.3594 512.656 37.0156C512.125 35.5781 511.406 34.2188 510.5 32.9375C509.594 31.625 508.531 30.4844 507.312 29.5156C506.094 28.5469 504.734 27.7812 503.234 27.2188C501.766 26.6562 500.172 26.375 498.453 26.375C495.797 26.375 493.375 26.8125 491.188 27.6875C489.031 28.5312 487.156 29.7344 485.562 31.2969C483.969 32.8281 482.688 34.7031 481.719 36.9219C480.75 39.1094 480.156 41.5312 479.938 44.1875ZM546.453 52.8594C547.047 55.2031 547.922 57.1719 549.078 58.7656C550.266 60.3281 551.594 61.5938 553.062 62.5625C554.531 63.5312 556.078 64.2344 557.703 64.6719C559.359 65.0781 560.969 65.2812 562.531 65.2812C564.969 65.2812 567.141 65.0781 569.047 64.6719C570.953 64.2344 572.578 63.7188 573.922 63.125C575.297 62.5 576.406 61.8594 577.25 61.2031C578.094 60.5469 578.688 59.9688 579.031 59.4688C579.344 59 579.688 58.5625 580.062 58.1562C580.469 57.7188 580.891 57.3438 581.328 57.0312C581.797 56.6875 582.25 56.4219 582.688 56.2344C583.156 56.0469 583.594 55.9531 584 55.9531C585.562 55.9531 586.766 56.4219 587.609 57.3594C588.484 58.2656 588.922 59.5 588.922 61.0625C588.922 61.6562 588.703 62.4062 588.266 63.3125C587.828 64.2188 587.016 65.2188 585.828 66.3125C584.516 67.5312 583.047 68.6875 581.422 69.7812C579.828 70.875 578.062 71.8438 576.125 72.6875C574.188 73.5 572.078 74.1406 569.797 74.6094C567.547 75.1094 565.109 75.3594 562.484 75.3594C559.391 75.3594 556.562 74.9375 554 74.0938C551.438 73.2812 549.141 72.1719 547.109 70.7656C545.078 69.3281 543.312 67.6719 541.812 65.7969C540.312 63.9219 539.062 61.9219 538.062 59.7969C537.062 57.6719 536.312 55.4844 535.812 53.2344C535.312 50.9844 535.062 48.7969 535.062 46.6719C535.062 42.0469 535.812 37.875 537.312 34.1562C538.812 30.4062 540.875 27.2031 543.5 24.5469C546.125 21.8906 549.234 19.8438 552.828 18.4062C556.422 16.9688 560.312 16.25 564.5 16.25C567.5 16.25 570.312 16.7031 572.938 17.6094C575.562 18.4844 577.891 19.7344 579.922 21.3594C581.984 22.9531 583.703 24.875 585.078 27.125C586.484 29.3438 587.469 31.7969 588.031 34.4844C588.656 35.0156 589.109 35.7188 589.391 36.5938C589.703 37.4375 589.859 38.2812 589.859 39.125C589.859 40.5312 589.375 41.6875 588.406 42.5938C587.469 43.4688 586.281 44.0781 584.844 44.4219C581.688 45.2344 578.531 45.9844 575.375 46.6719C572.219 47.3594 569.047 48.0312 565.859 48.6875C562.672 49.3438 559.453 50.0156 556.203 50.7031C552.984 51.3906 549.734 52.1094 546.453 52.8594ZM545.656 44.1875C550.969 42.9375 556.344 41.7656 561.781 40.6719C567.219 39.5781 572.75 38.3594 578.375 37.0156C577.844 35.5781 577.125 34.2188 576.219 32.9375C575.312 31.625 574.25 30.4844 573.031 29.5156C571.812 28.5469 570.453 27.7812 568.953 27.2188C567.484 26.6562 565.891 26.375 564.172 26.375C561.516 26.375 559.094 26.8125 556.906 27.6875C554.75 28.5312 552.875 29.7344 551.281 31.2969C549.688 32.8281 548.406 34.7031 547.438 36.9219C546.469 39.1094 545.875 41.5312 545.656 44.1875ZM608.797 60.4062L608.516 27.3594L602.844 27.4062C602.125 27.4062 601.5 27.2656 600.969 26.9844C600.438 26.6719 599.984 26.2656 599.609 25.7656C599.266 25.2344 599 24.6406 598.812 23.9844C598.625 23.3281 598.531 22.6406 598.531 21.9219C598.531 20.7031 598.672 19.7812 598.953 19.1562C599.266 18.5 599.703 18.0312 600.266 17.75C600.828 17.4375 601.516 17.2656 602.328 17.2344C603.141 17.1719 604.078 17.1406 605.141 17.1406H608.469V15.4062C608.469 14.25 608.453 13.3125 608.422 12.5938C608.422 11.875 608.422 11.3906 608.422 11.1406C608.422 10.2344 608.328 9.32812 608.141 8.42188C607.984 7.51562 607.906 6.59375 607.906 5.65625C607.906 4.875 608 4.1875 608.188 3.59375C608.375 3 608.688 2.5 609.125 2.09375C609.594 1.65625 610.203 1.32812 610.953 1.10938C611.703 0.890625 612.625 0.78125 613.719 0.78125C614.469 0.78125 615.172 0.84375 615.828 0.96875C616.516 1.09375 617.109 1.34375 617.609 1.71875C618.141 2.0625 618.562 2.54688 618.875 3.17188C619.188 3.79688 619.344 4.60938 619.344 5.60938C619.344 6.95312 619.219 8.28125 618.969 9.59375C618.75 10.9062 618.656 12.2656 618.688 13.6719V17.0938C621.125 17.0312 623.016 16.9844 624.359 16.9531C625.734 16.9219 626.844 16.8906 627.688 16.8594C627.812 16.8594 627.922 16.8594 628.016 16.8594C628.141 16.8281 628.25 16.8125 628.344 16.8125C628.719 16.7812 629.141 16.7656 629.609 16.7656C630.078 16.7656 630.453 16.7656 630.734 16.7656C631.328 16.7656 631.906 16.8594 632.469 17.0469C633.031 17.2344 633.516 17.5469 633.922 17.9844C634.359 18.4219 634.703 18.9844 634.953 19.6719C635.203 20.3594 635.328 21.1875 635.328 22.1562C635.328 22.9062 635.266 23.6094 635.141 24.2656C635.016 24.9219 634.781 25.5 634.438 26C634.094 26.5 633.594 26.9062 632.938 27.2188C632.281 27.5 631.438 27.6406 630.406 27.6406C629.438 27.6406 628.453 27.5938 627.453 27.5C626.484 27.375 625.484 27.2969 624.453 27.2656L618.781 27.3125L619.109 64.2969C620.391 64.0781 621.516 63.875 622.484 63.6875C623.453 63.5 624.359 63.3125 625.203 63.125C626.047 62.9375 626.875 62.7188 627.688 62.4688C628.5 62.2188 629.391 61.9062 630.359 61.5312C630.891 61.25 631.516 60.9688 632.234 60.6875C632.953 60.375 633.703 60.2188 634.484 60.2188C636.016 60.2188 637.219 60.75 638.094 61.8125C638.969 62.8438 639.406 64.2031 639.406 65.8906C639.406 66.3281 639.297 66.8125 639.078 67.3438C638.891 67.875 638.594 68.4062 638.188 68.9375C637.781 69.4375 637.25 69.9062 636.594 70.3438C635.969 70.75 635.219 71.0469 634.344 71.2344C633.406 71.4219 632.328 71.6562 631.109 71.9375C629.891 72.2188 628.609 72.5156 627.266 72.8281C625.922 73.1406 624.578 73.4531 623.234 73.7656C621.891 74.0781 620.625 74.3438 619.438 74.5625C618.25 74.8125 617.203 75.0156 616.297 75.1719C615.391 75.3281 614.703 75.3906 614.234 75.3594C613.672 75.3594 613.047 75.2812 612.359 75.125C611.703 75 611.094 74.75 610.531 74.375C609.969 74.0312 609.5 73.5469 609.125 72.9219C608.781 72.2656 608.609 71.4375 608.609 70.4375L608.797 60.4062Z" fill="#0C2557"/>
</svg>
